<svg width="125" height="125" viewBox="0 0 125 125" fill="none" xmlns="http://www.w3.org/2000/svg">
<g clip-path="url(#clip0_2765_287137)">
<rect width="125" height="125" rx="28" fill="url(#paint0_linear_2765_287137)" fill-opacity="0.4"/>
<g filter="url(#filter0_d_2765_287137)">
<path d="M88.9695 64.3414C85.3285 66.7746 81.089 68.1463 76.7249 68.3128V59.9708C79.4302 59.7998 82.0489 58.9173 84.3123 57.4047C86.8457 55.7117 88.8203 53.3053 89.9863 50.4899C91.1523 47.6745 91.4574 44.5765 90.863 41.5877C90.2685 38.5989 88.8013 35.8535 86.6468 33.6987C84.4923 31.5439 81.7472 30.0764 78.7589 29.4819C75.7705 28.8874 72.6729 29.1925 69.8579 30.3587C67.0429 31.5249 64.6369 33.4997 62.9441 36.0335C61.2513 38.5673 60.3478 41.5463 60.3478 44.5936H60.4866V44.663H60.3478V81.9333H52.1592V44.5936C52.1729 39.937 53.5599 35.3872 56.1472 31.5144C58.7474 27.6224 62.4432 24.5889 66.7671 22.7976C71.0911 21.0063 75.849 20.5377 80.4393 21.4509C85.0296 22.3641 89.246 24.6181 92.5554 27.928C95.8648 31.2379 98.1186 35.4549 99.0316 40.0458C99.9447 44.6368 99.4761 49.3954 97.685 53.72C95.894 58.0445 92.861 61.7408 88.9695 64.3414Z" fill="url(#paint1_linear_2765_287137)"/>
<path d="M36.0285 60.6586C39.6695 58.2254 43.909 56.8537 48.2731 56.6872V65.0292C45.5678 65.2002 42.9492 66.0827 40.6858 67.5953C38.1523 69.2883 36.1778 71.6947 35.0118 74.5101C33.8457 77.3255 33.5407 80.4235 34.1351 83.4123C34.7295 86.4011 36.1968 89.1465 38.3513 91.3013C40.5058 93.4561 43.2508 94.9236 46.2392 95.5181C49.2276 96.1126 52.3251 95.8075 55.1401 94.6413C57.9551 93.4751 60.3612 91.5003 62.054 88.9665C63.7467 86.4327 64.6503 83.4537 64.6503 80.4064H64.5115V80.337H64.6503V43.0667H72.8388L72.8388 80.337C72.8388 80.3451 72.8388 80.3533 72.8388 80.3615V80.4064C72.8252 85.063 71.4381 89.6128 68.8508 93.4856C66.2506 97.3776 62.5549 100.411 58.2309 102.202C53.907 103.994 49.149 104.462 44.5587 103.549C39.9685 102.636 35.752 100.382 32.4426 97.072C29.1332 93.7621 26.8795 89.5451 25.9664 84.9542C25.0534 80.3632 25.522 75.6046 27.313 71.28C29.104 66.9555 32.1371 63.2592 36.0285 60.6586Z" fill="url(#paint2_linear_2765_287137)"/>
<path d="M76.2249 68.3128V68.8322L76.744 68.8124C81.2003 68.6424 85.5294 67.2417 89.2473 64.7571C93.221 62.1016 96.3181 58.3272 98.147 53.9113C99.9759 49.4954 100.454 44.6362 99.522 39.9483C98.5897 35.2604 96.2883 30.9543 92.909 27.5745C89.5297 24.1946 85.2241 21.893 80.5369 20.9605C75.8496 20.028 70.9911 20.5066 66.5758 22.3357C62.1604 24.1649 58.3866 27.2624 55.7315 31.2366C53.0895 35.1912 51.6732 39.8371 51.6592 44.5922V44.5936V81.9333V82.4333H52.1592H60.3478H60.8478V81.9333V45.163H60.9866V44.663V44.5936V44.0936H60.8562C60.9492 41.3202 61.8147 38.6241 63.3598 36.3113C64.9977 33.8597 67.3256 31.9489 70.0493 30.8206C72.7729 29.6923 75.7699 29.3971 78.6613 29.9723C81.5527 30.5475 84.2086 31.9673 86.2932 34.0522C88.3778 36.1371 89.7974 38.7934 90.3726 41.6853C90.9477 44.5771 90.6525 47.5746 89.5243 50.2986C88.3962 53.0227 86.4857 55.3509 84.0345 56.989C81.8445 58.4525 79.3109 59.3064 76.6934 59.4718L76.2249 59.5014V59.9708V68.3128ZM48.7731 56.6872V56.1678L48.2541 56.1876C43.7977 56.3576 39.4686 57.7583 35.7507 60.2429C31.777 62.8984 28.6799 66.6728 26.8511 71.0887C25.0222 75.5046 24.5437 80.3638 25.476 85.0517C26.4084 89.7396 28.7097 94.0457 32.089 97.4255C35.4684 100.805 39.7739 103.107 44.4612 104.04C49.1485 104.972 54.007 104.493 58.4223 102.664C62.8376 100.835 66.6114 97.7376 69.2666 93.7634C71.9085 89.8088 73.3249 85.1629 73.3388 80.4078V80.4064V80.362V80.3615L73.3388 80.337L73.3388 43.0667V42.5667H72.8388H64.6503H64.1503V43.0667V79.837H64.0115V80.337V80.4064V80.9064H64.1419C64.0489 83.6798 63.1833 86.3759 61.6382 88.6887C60.0003 91.1403 57.6724 93.0511 54.9488 94.1794C52.2251 95.3077 49.2281 95.6029 46.3367 95.0277C43.4454 94.4525 40.7894 93.0327 38.7049 90.9478C36.6203 88.8629 35.2006 86.2066 34.6255 83.3148C34.0503 80.4229 34.3455 77.4254 35.4737 74.7014C36.6019 71.9773 38.5124 69.6491 40.9636 68.011C43.1535 66.5475 45.6872 65.6936 48.3047 65.5282L48.7731 65.4986V65.0292V56.6872Z" stroke="url(#paint3_linear_2765_287137)"/>
</g>
<rect x="1" y="1" width="123" height="123" rx="27" stroke="url(#paint4_linear_2765_287137)" stroke-width="2"/>
<rect width="143.056" height="143.056" fill="url(#paint5_linear_2765_287137)" fill-opacity="0.8"/>
<g filter="url(#filter1_d_2765_287137)">
<mask id="path-7-outside-1_2765_287137" maskUnits="userSpaceOnUse" x="16" y="52" width="93" height="21" fill="black">
<rect fill="white" x="16" y="52" width="93" height="21"/>
<path d="M18.6335 53.462L24.1195 53.54C26.9621 53.54 29.0421 53.436 30.3595 53.228C30.5501 53.592 30.6455 54.008 30.6455 54.476C30.6455 54.944 30.4375 55.3687 30.0215 55.75C29.6055 56.114 29.1028 56.296 28.5135 56.296L25.5235 55.958C25.5235 56.0793 25.4801 56.6167 25.3935 57.57C25.1508 59.91 25.0295 62.2587 25.0295 64.616C25.0295 66.9733 25.2115 69.3307 25.5755 71.688C25.0035 71.896 24.4055 72 23.7815 72C23.1575 72 22.6201 71.8267 22.1695 71.48C21.7188 71.116 21.4935 70.5787 21.4935 69.868C21.4935 69.14 21.5801 67.866 21.7535 66.046C21.9268 64.226 22.0135 62.458 22.0135 60.742C22.0135 59.0087 21.9268 57.3967 21.7535 55.906C19.6561 56.01 18.0181 56.3047 16.8395 56.79C16.6315 56.3913 16.5275 55.9493 16.5275 55.464C16.5275 54.9613 16.7268 54.502 17.1255 54.086C17.5241 53.67 18.0268 53.462 18.6335 53.462ZM46.0552 72C45.6005 72.176 45.1092 72.264 44.5812 72.264C44.0532 72.264 43.6425 72.1687 43.3492 71.978C43.0558 71.7873 42.8138 71.5013 42.6232 71.12C42.3445 70.5627 42.0292 69.6167 41.6772 68.282C41.3252 66.9327 41.0465 65.4587 40.8412 63.86C39.6092 67.776 38.9052 70.4453 38.7292 71.868C38.0838 72.044 37.5045 72.132 36.9912 72.132C36.1552 72.132 35.5392 71.8313 35.1432 71.23C34.7472 70.614 34.4612 69.8147 34.2852 68.832C34.2852 68.8027 34.1752 68.1867 33.9552 66.984C33.7352 65.7813 33.5738 64.9453 33.4712 64.476C33.1338 62.76 32.7818 61.3227 32.4152 60.164C32.0632 59.0053 31.5425 58.2133 30.8532 57.788C31.0292 57.348 31.3005 57.0033 31.6672 56.754C32.0338 56.5047 32.4445 56.38 32.8992 56.38C33.9112 56.38 34.6372 57.1427 35.0772 58.668C35.3852 59.7387 35.7518 61.5573 36.1772 64.124C36.6025 66.676 36.9178 68.502 37.1232 69.602C38.7805 64.9673 39.6092 61.902 39.6092 60.406C39.6092 60.098 39.5725 59.8853 39.4992 59.768C39.8072 59.416 40.2398 59.24 40.7972 59.24C41.3692 59.24 41.8092 59.394 42.1172 59.702C42.4398 60.01 42.6965 60.5087 42.8872 61.198C43.0778 61.8727 43.3418 63.2 43.6792 65.18C44.0312 67.16 44.3025 68.634 44.4932 69.602C45.0798 67.754 45.5418 66.2653 45.8792 65.136C46.2312 64.0067 46.5905 62.584 46.9572 60.868C47.3385 59.152 47.5292 57.766 47.5292 56.71C47.5292 56.5193 47.5218 56.38 47.5072 56.292C47.6978 56.2627 48.0205 56.248 48.4752 56.248C48.9298 56.248 49.3258 56.3947 49.6632 56.688C50.0152 56.9667 50.1912 57.4213 50.1912 58.052C50.1912 58.6827 49.9565 59.7387 49.4872 61.22C49.0325 62.7013 48.4385 64.5053 47.7052 66.632C46.9865 68.744 46.4365 70.5333 46.0552 72ZM55.0899 71.736C54.6206 71.912 54.1219 72 53.5939 72C53.0659 72 52.6039 71.8313 52.2079 71.494C51.8266 71.1567 51.6359 70.6947 51.6359 70.108C51.6359 69.5213 51.7093 68.3993 51.8559 66.742C52.0026 65.07 52.0759 63.7353 52.0759 62.738C52.0759 60.1713 51.9219 58.14 51.6139 56.644C52.0833 56.468 52.5819 56.38 53.1099 56.38C53.6379 56.38 54.0926 56.5487 54.4739 56.886C54.8699 57.2233 55.0679 57.6853 55.0679 58.272C55.0679 58.8587 54.9946 59.988 54.8479 61.66C54.7013 63.3173 54.6279 64.6447 54.6279 65.642C54.6279 68.2087 54.7819 70.24 55.0899 71.736ZM66.845 56.6C67.3143 56.3653 67.8057 56.248 68.319 56.248C68.847 56.248 69.2723 56.4093 69.595 56.732C69.9323 57.0547 70.101 57.4433 70.101 57.898C70.101 58.3527 70.035 59.3573 69.903 60.912C69.771 62.452 69.705 63.6767 69.705 64.586C69.705 67.5047 69.837 69.932 70.101 71.868C69.6317 72.044 69.1037 72.132 68.517 72.132C67.945 72.132 67.4977 72.0367 67.175 71.846C66.2363 71.3033 64.0437 67.8713 60.597 61.55C60.5383 62.122 60.509 63.464 60.509 65.576C60.509 67.6733 60.6703 69.7267 60.993 71.736C60.5383 71.912 60.047 72 59.519 72C58.991 72 58.5583 71.8313 58.221 71.494C57.8983 71.1567 57.737 70.7533 57.737 70.284C57.737 69.8147 57.803 68.832 57.935 67.336C58.0817 65.84 58.155 64.7107 58.155 63.948C58.155 61.0293 58.0157 58.6093 57.737 56.688C58.1477 56.4827 58.749 56.38 59.541 56.38C60.333 56.38 60.8903 56.6953 61.213 57.326C63.3837 61.7407 65.459 65.4807 67.439 68.546C67.395 65.73 67.373 64.2413 67.373 64.08C67.373 61.3373 67.197 58.844 66.845 56.6ZM78.9673 63.42C79.73 64.9747 80.6613 66.4193 81.7613 67.754C82.876 69.0887 83.9173 69.9027 84.8853 70.196C84.8853 70.812 84.724 71.2887 84.4013 71.626C84.0787 71.9633 83.6167 72.132 83.0153 72.132C82.2233 72.132 81.3067 71.582 80.2653 70.482C79.2387 69.3673 78.3367 68.1207 77.5593 66.742C76.782 65.3633 76.2393 64.1533 75.9313 63.112C77.3833 62.4813 78.6227 61.506 79.6493 60.186C80.676 58.8513 81.1893 57.5387 81.1893 56.248C81.82 56.248 82.3627 56.358 82.8173 56.578C83.2867 56.798 83.5213 57.15 83.5213 57.634C83.5213 58.3967 83.0667 59.3207 82.1573 60.406C81.248 61.4913 80.1847 62.496 78.9673 63.42ZM75.8653 71.736C75.396 71.912 74.8973 72 74.3693 72C73.8413 72 73.3793 71.8313 72.9833 71.494C72.602 71.1567 72.4113 70.6947 72.4113 70.108C72.4113 69.5213 72.4847 68.3993 72.6313 66.742C72.778 65.07 72.8513 63.7353 72.8513 62.738C72.8513 60.1713 72.6973 58.14 72.3893 56.644C72.8587 56.468 73.3573 56.38 73.8853 56.38C74.4133 56.38 74.868 56.5487 75.2493 56.886C75.6453 57.2233 75.8433 57.6853 75.8433 58.272C75.8433 58.8587 75.77 59.988 75.6233 61.66C75.4767 63.3173 75.4033 64.6447 75.4033 65.642C75.4033 68.2087 75.5573 70.24 75.8653 71.736ZM86.4616 56.644C86.9309 56.468 87.4369 56.38 87.9796 56.38C89.2849 56.38 89.9376 56.974 89.9376 58.162C89.9376 58.8073 89.8643 59.8707 89.7176 61.352C89.5709 62.8187 89.4976 64.344 89.4976 65.928C89.4976 67.512 89.5489 68.8247 89.6516 69.866C90.0476 69.91 90.4436 69.932 90.8396 69.932C92.7756 69.932 94.4769 69.6093 95.9436 68.964C96.1196 69.36 96.2076 69.8073 96.2076 70.306C96.2076 70.8047 96.0316 71.2373 95.6796 71.604C95.3423 71.956 94.9243 72.132 94.4256 72.132C93.3843 72.132 91.1036 72.044 87.5836 71.868C87.3049 71.8533 87.0629 71.7727 86.8576 71.626C86.6523 71.4647 86.5496 71.2667 86.5496 71.032C86.5496 70.2547 86.6083 68.942 86.7256 67.094C86.8576 65.246 86.9236 63.5447 86.9236 61.99C86.9236 60.4207 86.7696 58.6387 86.4616 56.644ZM107.684 68.964C107.86 69.36 107.948 69.8073 107.948 70.306C107.948 70.8047 107.772 71.2373 107.42 71.604C107.083 71.956 106.665 72.132 106.166 72.132C104.612 72.132 102.177 72.044 98.8624 71.868C98.5984 71.8533 98.3637 71.7727 98.1584 71.626C97.953 71.4647 97.8504 71.2667 97.8504 71.032C97.8504 70.2547 97.909 68.942 98.0264 67.094C98.1584 65.246 98.2244 63.5227 98.2244 61.924C98.2244 60.3107 98.0704 58.4627 97.7624 56.38C98.8477 56.468 100.307 56.512 102.14 56.512C103.974 56.512 105.726 56.38 107.398 56.116C107.574 56.4387 107.662 56.8273 107.662 57.282C107.662 57.722 107.486 58.118 107.134 58.47C106.797 58.8073 106.372 58.976 105.858 58.976C105.36 58.976 104.553 58.9027 103.438 58.756C102.338 58.6093 101.524 58.536 100.996 58.536C100.879 60.0173 100.813 61.4107 100.798 62.716C101.722 62.804 102.712 62.848 103.768 62.848C104.839 62.848 105.756 62.694 106.518 62.386C106.694 62.7087 106.782 63.0973 106.782 63.552C106.782 63.992 106.606 64.3953 106.254 64.762C105.917 65.114 105.506 65.29 105.022 65.29C104.553 65.29 103.849 65.202 102.91 65.026C101.972 64.8353 101.26 64.74 100.776 64.74C100.776 67.0573 100.828 68.7587 100.93 69.844C101.634 69.9027 102.184 69.932 102.58 69.932C104.516 69.932 106.218 69.6093 107.684 68.964Z"/>
</mask>
<path d="M18.6335 53.462L24.1195 53.54C26.9621 53.54 29.0421 53.436 30.3595 53.228C30.5501 53.592 30.6455 54.008 30.6455 54.476C30.6455 54.944 30.4375 55.3687 30.0215 55.75C29.6055 56.114 29.1028 56.296 28.5135 56.296L25.5235 55.958C25.5235 56.0793 25.4801 56.6167 25.3935 57.57C25.1508 59.91 25.0295 62.2587 25.0295 64.616C25.0295 66.9733 25.2115 69.3307 25.5755 71.688C25.0035 71.896 24.4055 72 23.7815 72C23.1575 72 22.6201 71.8267 22.1695 71.48C21.7188 71.116 21.4935 70.5787 21.4935 69.868C21.4935 69.14 21.5801 67.866 21.7535 66.046C21.9268 64.226 22.0135 62.458 22.0135 60.742C22.0135 59.0087 21.9268 57.3967 21.7535 55.906C19.6561 56.01 18.0181 56.3047 16.8395 56.79C16.6315 56.3913 16.5275 55.9493 16.5275 55.464C16.5275 54.9613 16.7268 54.502 17.1255 54.086C17.5241 53.67 18.0268 53.462 18.6335 53.462ZM46.0552 72C45.6005 72.176 45.1092 72.264 44.5812 72.264C44.0532 72.264 43.6425 72.1687 43.3492 71.978C43.0558 71.7873 42.8138 71.5013 42.6232 71.12C42.3445 70.5627 42.0292 69.6167 41.6772 68.282C41.3252 66.9327 41.0465 65.4587 40.8412 63.86C39.6092 67.776 38.9052 70.4453 38.7292 71.868C38.0838 72.044 37.5045 72.132 36.9912 72.132C36.1552 72.132 35.5392 71.8313 35.1432 71.23C34.7472 70.614 34.4612 69.8147 34.2852 68.832C34.2852 68.8027 34.1752 68.1867 33.9552 66.984C33.7352 65.7813 33.5738 64.9453 33.4712 64.476C33.1338 62.76 32.7818 61.3227 32.4152 60.164C32.0632 59.0053 31.5425 58.2133 30.8532 57.788C31.0292 57.348 31.3005 57.0033 31.6672 56.754C32.0338 56.5047 32.4445 56.38 32.8992 56.38C33.9112 56.38 34.6372 57.1427 35.0772 58.668C35.3852 59.7387 35.7518 61.5573 36.1772 64.124C36.6025 66.676 36.9178 68.502 37.1232 69.602C38.7805 64.9673 39.6092 61.902 39.6092 60.406C39.6092 60.098 39.5725 59.8853 39.4992 59.768C39.8072 59.416 40.2398 59.24 40.7972 59.24C41.3692 59.24 41.8092 59.394 42.1172 59.702C42.4398 60.01 42.6965 60.5087 42.8872 61.198C43.0778 61.8727 43.3418 63.2 43.6792 65.18C44.0312 67.16 44.3025 68.634 44.4932 69.602C45.0798 67.754 45.5418 66.2653 45.8792 65.136C46.2312 64.0067 46.5905 62.584 46.9572 60.868C47.3385 59.152 47.5292 57.766 47.5292 56.71C47.5292 56.5193 47.5218 56.38 47.5072 56.292C47.6978 56.2627 48.0205 56.248 48.4752 56.248C48.9298 56.248 49.3258 56.3947 49.6632 56.688C50.0152 56.9667 50.1912 57.4213 50.1912 58.052C50.1912 58.6827 49.9565 59.7387 49.4872 61.22C49.0325 62.7013 48.4385 64.5053 47.7052 66.632C46.9865 68.744 46.4365 70.5333 46.0552 72ZM55.0899 71.736C54.6206 71.912 54.1219 72 53.5939 72C53.0659 72 52.6039 71.8313 52.2079 71.494C51.8266 71.1567 51.6359 70.6947 51.6359 70.108C51.6359 69.5213 51.7093 68.3993 51.8559 66.742C52.0026 65.07 52.0759 63.7353 52.0759 62.738C52.0759 60.1713 51.9219 58.14 51.6139 56.644C52.0833 56.468 52.5819 56.38 53.1099 56.38C53.6379 56.38 54.0926 56.5487 54.4739 56.886C54.8699 57.2233 55.0679 57.6853 55.0679 58.272C55.0679 58.8587 54.9946 59.988 54.8479 61.66C54.7013 63.3173 54.6279 64.6447 54.6279 65.642C54.6279 68.2087 54.7819 70.24 55.0899 71.736ZM66.845 56.6C67.3143 56.3653 67.8057 56.248 68.319 56.248C68.847 56.248 69.2723 56.4093 69.595 56.732C69.9323 57.0547 70.101 57.4433 70.101 57.898C70.101 58.3527 70.035 59.3573 69.903 60.912C69.771 62.452 69.705 63.6767 69.705 64.586C69.705 67.5047 69.837 69.932 70.101 71.868C69.6317 72.044 69.1037 72.132 68.517 72.132C67.945 72.132 67.4977 72.0367 67.175 71.846C66.2363 71.3033 64.0437 67.8713 60.597 61.55C60.5383 62.122 60.509 63.464 60.509 65.576C60.509 67.6733 60.6703 69.7267 60.993 71.736C60.5383 71.912 60.047 72 59.519 72C58.991 72 58.5583 71.8313 58.221 71.494C57.8983 71.1567 57.737 70.7533 57.737 70.284C57.737 69.8147 57.803 68.832 57.935 67.336C58.0817 65.84 58.155 64.7107 58.155 63.948C58.155 61.0293 58.0157 58.6093 57.737 56.688C58.1477 56.4827 58.749 56.38 59.541 56.38C60.333 56.38 60.8903 56.6953 61.213 57.326C63.3837 61.7407 65.459 65.4807 67.439 68.546C67.395 65.73 67.373 64.2413 67.373 64.08C67.373 61.3373 67.197 58.844 66.845 56.6ZM78.9673 63.42C79.73 64.9747 80.6613 66.4193 81.7613 67.754C82.876 69.0887 83.9173 69.9027 84.8853 70.196C84.8853 70.812 84.724 71.2887 84.4013 71.626C84.0787 71.9633 83.6167 72.132 83.0153 72.132C82.2233 72.132 81.3067 71.582 80.2653 70.482C79.2387 69.3673 78.3367 68.1207 77.5593 66.742C76.782 65.3633 76.2393 64.1533 75.9313 63.112C77.3833 62.4813 78.6227 61.506 79.6493 60.186C80.676 58.8513 81.1893 57.5387 81.1893 56.248C81.82 56.248 82.3627 56.358 82.8173 56.578C83.2867 56.798 83.5213 57.15 83.5213 57.634C83.5213 58.3967 83.0667 59.3207 82.1573 60.406C81.248 61.4913 80.1847 62.496 78.9673 63.42ZM75.8653 71.736C75.396 71.912 74.8973 72 74.3693 72C73.8413 72 73.3793 71.8313 72.9833 71.494C72.602 71.1567 72.4113 70.6947 72.4113 70.108C72.4113 69.5213 72.4847 68.3993 72.6313 66.742C72.778 65.07 72.8513 63.7353 72.8513 62.738C72.8513 60.1713 72.6973 58.14 72.3893 56.644C72.8587 56.468 73.3573 56.38 73.8853 56.38C74.4133 56.38 74.868 56.5487 75.2493 56.886C75.6453 57.2233 75.8433 57.6853 75.8433 58.272C75.8433 58.8587 75.77 59.988 75.6233 61.66C75.4767 63.3173 75.4033 64.6447 75.4033 65.642C75.4033 68.2087 75.5573 70.24 75.8653 71.736ZM86.4616 56.644C86.9309 56.468 87.4369 56.38 87.9796 56.38C89.2849 56.38 89.9376 56.974 89.9376 58.162C89.9376 58.8073 89.8643 59.8707 89.7176 61.352C89.5709 62.8187 89.4976 64.344 89.4976 65.928C89.4976 67.512 89.5489 68.8247 89.6516 69.866C90.0476 69.91 90.4436 69.932 90.8396 69.932C92.7756 69.932 94.4769 69.6093 95.9436 68.964C96.1196 69.36 96.2076 69.8073 96.2076 70.306C96.2076 70.8047 96.0316 71.2373 95.6796 71.604C95.3423 71.956 94.9243 72.132 94.4256 72.132C93.3843 72.132 91.1036 72.044 87.5836 71.868C87.3049 71.8533 87.0629 71.7727 86.8576 71.626C86.6523 71.4647 86.5496 71.2667 86.5496 71.032C86.5496 70.2547 86.6083 68.942 86.7256 67.094C86.8576 65.246 86.9236 63.5447 86.9236 61.99C86.9236 60.4207 86.7696 58.6387 86.4616 56.644ZM107.684 68.964C107.86 69.36 107.948 69.8073 107.948 70.306C107.948 70.8047 107.772 71.2373 107.42 71.604C107.083 71.956 106.665 72.132 106.166 72.132C104.612 72.132 102.177 72.044 98.8624 71.868C98.5984 71.8533 98.3637 71.7727 98.1584 71.626C97.953 71.4647 97.8504 71.2667 97.8504 71.032C97.8504 70.2547 97.909 68.942 98.0264 67.094C98.1584 65.246 98.2244 63.5227 98.2244 61.924C98.2244 60.3107 98.0704 58.4627 97.7624 56.38C98.8477 56.468 100.307 56.512 102.14 56.512C103.974 56.512 105.726 56.38 107.398 56.116C107.574 56.4387 107.662 56.8273 107.662 57.282C107.662 57.722 107.486 58.118 107.134 58.47C106.797 58.8073 106.372 58.976 105.858 58.976C105.36 58.976 104.553 58.9027 103.438 58.756C102.338 58.6093 101.524 58.536 100.996 58.536C100.879 60.0173 100.813 61.4107 100.798 62.716C101.722 62.804 102.712 62.848 103.768 62.848C104.839 62.848 105.756 62.694 106.518 62.386C106.694 62.7087 106.782 63.0973 106.782 63.552C106.782 63.992 106.606 64.3953 106.254 64.762C105.917 65.114 105.506 65.29 105.022 65.29C104.553 65.29 103.849 65.202 102.91 65.026C101.972 64.8353 101.26 64.74 100.776 64.74C100.776 67.0573 100.828 68.7587 100.93 69.844C101.634 69.9027 102.184 69.932 102.58 69.932C104.516 69.932 106.218 69.6093 107.684 68.964Z" fill="#F7F4ED" fill-opacity="0.1" shape-rendering="crispEdges"/>
<path d="M18.6335 53.462L18.6406 52.962H18.6335V53.462ZM24.1195 53.54L24.1124 54.04H24.1195V53.54ZM30.3595 53.228L30.8024 52.996L30.6359 52.6782L30.2815 52.7341L30.3595 53.228ZM30.0215 55.75L30.3508 56.1264L30.3593 56.1186L30.0215 55.75ZM28.5135 56.296L28.4573 56.7928L28.4853 56.796H28.5135V56.296ZM25.5235 55.958L25.5796 55.4612L25.0235 55.3983V55.958H25.5235ZM25.3935 57.57L25.8908 57.6216L25.8914 57.6153L25.3935 57.57ZM25.5755 71.688L25.7463 72.1579L26.1323 72.0176L26.0696 71.6117L25.5755 71.688ZM22.1695 71.48L21.8552 71.8691L21.8646 71.8763L22.1695 71.48ZM21.7535 66.046L22.2512 66.0934L21.7535 66.046ZM21.7535 55.906L22.2501 55.8482L22.1961 55.3834L21.7287 55.4066L21.7535 55.906ZM16.8395 56.79L16.3962 57.0213L16.6075 57.4263L17.0298 57.2523L16.8395 56.79ZM17.1255 54.086L17.4865 54.432V54.432L17.1255 54.086ZM18.6264 53.9619L24.1124 54.0399L24.1266 53.04L18.6406 52.962L18.6264 53.9619ZM24.1195 54.04C26.9659 54.04 29.079 53.9364 30.4374 53.7219L30.2815 52.7341C29.0053 52.9356 26.9584 53.04 24.1195 53.04V54.04ZM29.9165 53.46C30.0648 53.743 30.1455 54.0775 30.1455 54.476H31.1455C31.1455 53.9385 31.0355 53.441 30.8024 52.996L29.9165 53.46ZM30.1455 54.476C30.1455 54.7754 30.0193 55.0737 29.6836 55.3814L30.3593 56.1186C30.8556 55.6637 31.1455 55.1126 31.1455 54.476H30.1455ZM29.6922 55.3737C29.3737 55.6524 28.9904 55.796 28.5135 55.796V56.796C29.2152 56.796 29.8372 56.5756 30.3507 56.1263L29.6922 55.3737ZM28.5696 55.7992L25.5796 55.4612L25.4673 56.4548L28.4573 56.7928L28.5696 55.7992ZM25.0235 55.958C25.0235 56.0499 24.9838 56.5541 24.8955 57.5247L25.8914 57.6153C25.9765 56.6793 26.0235 56.1088 26.0235 55.958H25.0235ZM24.8961 57.5184C24.6517 59.8756 24.5295 62.2415 24.5295 64.616H25.5295C25.5295 62.2759 25.6499 59.9444 25.8908 57.6216L24.8961 57.5184ZM24.5295 64.616C24.5295 66.9992 24.7135 69.382 25.0813 71.7643L26.0696 71.6117C25.7095 69.2793 25.5295 66.9475 25.5295 64.616H24.5295ZM25.4046 71.2181C24.8887 71.4057 24.3487 71.5 23.7815 71.5V72.5C24.4622 72.5 25.1182 72.3863 25.7463 72.1579L25.4046 71.2181ZM23.7815 71.5C23.2563 71.5 22.829 71.3565 22.4743 71.0837L21.8646 71.8763C22.4113 72.2968 23.0586 72.5 23.7815 72.5V71.5ZM22.4836 71.091C22.177 70.8434 21.9935 70.4653 21.9935 69.868H20.9935C20.9935 70.692 21.2606 71.3886 21.8553 71.869L22.4836 71.091ZM21.9935 69.868C21.9935 69.1665 22.0778 67.9142 22.2512 66.0934L21.2557 65.9986C21.0825 67.8178 20.9935 69.1135 20.9935 69.868H21.9935ZM22.2512 66.0934C22.4259 64.2587 22.5135 62.4748 22.5135 60.742H21.5135C21.5135 62.4412 21.4276 64.1933 21.2557 65.9986L22.2512 66.0934ZM22.5135 60.742C22.5135 58.9923 22.426 57.3608 22.2501 55.8482L21.2568 55.9637C21.4276 57.4326 21.5135 59.0251 21.5135 60.742H22.5135ZM21.7287 55.4066C19.6064 55.5119 17.9035 55.8111 16.6491 56.3277L17.0298 57.2523C18.1327 56.7982 19.7059 56.5081 21.7782 56.4054L21.7287 55.4066ZM17.2828 56.5587C17.1149 56.237 17.0275 55.8753 17.0275 55.464H16.0275C16.0275 56.0233 16.148 56.5456 16.3962 57.0213L17.2828 56.5587ZM17.0275 55.464C17.0275 55.1093 17.1629 54.7696 17.4865 54.432L16.7645 53.74C16.2907 54.2344 16.0275 54.8134 16.0275 55.464H17.0275ZM17.4865 54.432C17.7854 54.12 18.155 53.962 18.6335 53.962V52.962C17.8986 52.962 17.2629 53.22 16.7645 53.74L17.4865 54.432ZM46.0552 72L46.2357 72.4663L46.4746 72.3738L46.5391 72.1258L46.0552 72ZM43.3492 71.978L43.0767 72.3972L43.3492 71.978ZM42.6232 71.12L42.1759 71.3436H42.176L42.6232 71.12ZM41.6772 68.282L41.1934 68.4082L41.1937 68.4095L41.6772 68.282ZM40.8412 63.86L41.3371 63.7963L40.3642 63.7099L40.8412 63.86ZM38.7292 71.868L38.8607 72.3504L39.1842 72.2622L39.2254 71.9294L38.7292 71.868ZM35.1432 71.23L34.7225 71.5004L34.7256 71.505L35.1432 71.23ZM34.2852 68.832H33.7852V68.8764L33.793 68.9201L34.2852 68.832ZM33.9552 66.984L34.447 66.894L33.9552 66.984ZM33.4712 64.476L32.9804 64.5725L32.9827 64.5828L33.4712 64.476ZM32.4152 60.164L31.9367 60.3093L31.9385 60.3149L32.4152 60.164ZM30.8532 57.788L30.3889 57.6023L30.2328 57.9927L30.5906 58.2135L30.8532 57.788ZM31.6672 56.754L31.9483 57.1675V57.1675L31.6672 56.754ZM35.0772 58.668L35.5577 58.5298L35.5576 58.5294L35.0772 58.668ZM36.1772 64.124L35.6839 64.2057L35.684 64.2062L36.1772 64.124ZM37.1232 69.602L36.6317 69.6937L36.9711 71.5122L37.594 69.7704L37.1232 69.602ZM39.4992 59.768L39.1229 59.4387L38.8784 59.7182L39.0752 60.033L39.4992 59.768ZM42.1172 59.702L41.7635 60.0556L41.7719 60.0637L42.1172 59.702ZM42.8872 61.198L42.4053 61.3313L42.406 61.334L42.8872 61.198ZM43.6792 65.18L43.1863 65.264L43.1869 65.2675L43.6792 65.18ZM44.4932 69.602L44.0026 69.6986L44.9697 69.7533L44.4932 69.602ZM45.8792 65.136L45.4018 64.9872L45.4001 64.9929L45.8792 65.136ZM46.9572 60.868L46.4691 60.7595L46.4682 60.7635L46.9572 60.868ZM47.5072 56.292L47.4311 55.7978L46.9307 55.8748L47.014 56.3742L47.5072 56.292ZM49.6632 56.688L49.3351 57.0653L49.3438 57.0729L49.3528 57.08L49.6632 56.688ZM49.4872 61.22L49.0105 61.069L49.0092 61.0733L49.4872 61.22ZM47.7052 66.632L47.2325 66.469L47.2318 66.4709L47.7052 66.632ZM45.8747 71.5337C45.4822 71.6856 45.0526 71.764 44.5812 71.764V72.764C45.1657 72.764 45.7188 72.6664 46.2357 72.4663L45.8747 71.5337ZM44.5812 71.764C44.1039 71.764 43.8024 71.6763 43.6217 71.5588L43.0767 72.3972C43.4826 72.6611 44.0024 72.764 44.5812 72.764V71.764ZM43.6217 71.5588C43.4177 71.4262 43.2299 71.2155 43.0704 70.8964L42.176 71.3436C42.3977 71.7872 42.694 72.1485 43.0767 72.3972L43.6217 71.5588ZM43.0704 70.8964C42.8165 70.3887 42.5118 69.486 42.1606 68.1545L41.1937 68.4095C41.5465 69.7473 41.8725 70.7366 42.1759 71.3436L43.0704 70.8964ZM42.161 68.1558C41.8151 66.8299 41.5401 65.3771 41.3371 63.7963L40.3452 63.9237C40.5529 65.5403 40.8352 67.0354 41.1934 68.4082L42.161 68.1558ZM40.3642 63.7099C39.1341 67.6201 38.4154 70.3317 38.2329 71.8066L39.2254 71.9294C39.3949 70.5589 40.0843 67.9319 41.3181 64.0101L40.3642 63.7099ZM38.5976 71.3856C37.983 71.5532 37.449 71.632 36.9912 71.632V72.632C37.56 72.632 38.1847 72.5348 38.8607 72.3504L38.5976 71.3856ZM36.9912 71.632C36.2918 71.632 35.8482 71.3914 35.5607 70.955L34.7256 71.505C35.2302 72.2712 36.0185 72.632 36.9912 72.632V71.632ZM35.5638 70.9596C35.2138 70.4152 34.9457 69.6838 34.7773 68.7439L33.793 68.9201C33.9767 69.9456 34.2805 70.8128 34.7226 71.5004L35.5638 70.9596ZM34.7852 68.832C34.7852 68.803 34.7825 68.7791 34.7822 68.7757C34.7812 68.7669 34.7802 68.759 34.7795 68.7533C34.7779 68.7416 34.776 68.7288 34.774 68.7163C34.77 68.6909 34.7644 68.6571 34.7574 68.616C34.7433 68.5333 34.7224 68.4145 34.6949 68.2601C34.6397 67.951 34.557 67.4955 34.447 66.894L33.4633 67.074C33.5733 67.6751 33.6556 68.129 33.7105 68.4359C33.7379 68.5895 33.7582 68.7053 33.7716 68.784C33.7784 68.8236 33.7831 68.8521 33.786 68.8707C33.7875 68.8802 33.7881 68.8848 33.7883 68.886C33.7904 68.9019 33.7852 68.8703 33.7852 68.832H34.7852ZM34.447 66.894C34.2271 65.6917 34.0643 64.8479 33.9596 64.3692L32.9827 64.5828C33.0833 65.0428 33.2433 65.871 33.4633 67.074L34.447 66.894ZM33.9618 64.3796C33.6222 62.6524 33.266 61.1955 32.8919 60.0131L31.9385 60.3149C32.2976 61.4498 32.6454 62.8676 32.9806 64.5724L33.9618 64.3796ZM32.8936 60.0187C32.5232 58.7995 31.9496 57.877 31.1157 57.3625L30.5906 58.2135C31.1354 58.5497 31.6031 59.2112 31.9368 60.3093L32.8936 60.0187ZM31.3174 57.9737C31.4591 57.6195 31.6698 57.3569 31.9483 57.1675L31.386 56.3405C30.9312 56.6498 30.5992 57.0765 30.3889 57.6023L31.3174 57.9737ZM31.9483 57.1675C32.2299 56.976 32.5421 56.88 32.8992 56.88V55.88C32.3469 55.88 31.8378 56.0333 31.386 56.3405L31.9483 57.1675ZM32.8992 56.88C33.2622 56.88 33.5676 57.01 33.8405 57.2967C34.1271 57.5978 34.3887 58.0852 34.5968 58.8066L35.5576 58.5294C35.3257 57.7255 35.0043 57.0689 34.5648 56.6073C34.1117 56.1313 33.5482 55.88 32.8992 55.88V56.88ZM34.5967 58.8062C34.8959 59.8464 35.2587 61.6398 35.6839 64.2057L36.6704 64.0423C36.245 61.4749 35.8744 59.6309 35.5577 58.5298L34.5967 58.8062ZM35.684 64.2062C36.1093 66.7584 36.4254 68.5886 36.6317 69.6937L37.6147 69.5103C37.4103 68.4154 37.0957 66.5936 36.6704 64.0418L35.684 64.2062ZM37.594 69.7704C38.425 67.4465 39.0512 65.5079 39.4703 63.9575C39.8863 62.4188 40.1092 61.2244 40.1092 60.406H39.1092C39.1092 61.0836 38.9177 62.1699 38.505 63.6965C38.0954 65.2115 37.4787 67.1228 36.6524 69.4336L37.594 69.7704ZM40.1092 60.406C40.1092 60.0937 40.0784 59.7514 39.9232 59.503L39.0752 60.033C39.0637 60.0147 39.0761 60.0262 39.0889 60.1005C39.1009 60.1697 39.1092 60.2695 39.1092 60.406H40.1092ZM39.8755 60.0973C40.0702 59.8746 40.3537 59.74 40.7972 59.74V58.74C40.1259 58.74 39.5441 58.9574 39.1229 59.4387L39.8755 60.0973ZM40.7972 59.74C41.2797 59.74 41.576 59.868 41.7636 60.0556L42.4707 59.3484C42.0423 58.92 41.4586 58.74 40.7972 58.74V59.74ZM41.7719 60.0637C42.001 60.2823 42.2255 60.6815 42.4053 61.3313L43.3691 61.0647C43.1675 60.3358 42.8787 59.7377 42.4624 59.3403L41.7719 60.0637ZM42.406 61.334C42.5883 61.979 42.8483 63.2805 43.1863 65.264L44.1721 65.096C43.8353 63.1195 43.5674 61.7664 43.3683 61.062L42.406 61.334ZM43.1869 65.2675C43.539 67.2481 43.811 68.7259 44.0026 69.6986L44.9837 69.5054C44.794 68.5421 44.5233 67.0719 44.1714 65.0925L43.1869 65.2675ZM44.9697 69.7533C45.5568 67.9041 46.0197 66.4123 46.3582 65.2791L45.4001 64.9929C45.0639 66.1183 44.6029 67.6039 44.0166 69.4507L44.9697 69.7533ZM46.3565 65.2848C46.7147 64.1357 47.0776 62.697 47.4461 60.9725L46.4682 60.7635C46.1034 62.471 45.7477 63.8776 45.4018 64.9872L46.3565 65.2848ZM47.4453 60.9765C47.83 59.245 48.0292 57.8185 48.0292 56.71H47.0292C47.0292 57.7135 46.847 59.059 46.4691 60.7595L47.4453 60.9765ZM48.0292 56.71C48.0292 56.5155 48.0223 56.3412 48.0004 56.2098L47.014 56.3742C47.0214 56.4188 47.0292 56.5232 47.0292 56.71H48.0292ZM47.5832 56.7862C47.7324 56.7632 48.0211 56.748 48.4752 56.748V55.748C48.0199 55.748 47.6633 55.7621 47.4311 55.7978L47.5832 56.7862ZM48.4752 56.748C48.8115 56.748 49.0904 56.8526 49.3351 57.0653L49.9913 56.3107C49.5612 55.9368 49.0481 55.748 48.4752 55.748V56.748ZM49.3528 57.08C49.5419 57.2297 49.6912 57.509 49.6912 58.052H50.6912C50.6912 57.3337 50.4885 56.7036 49.9735 56.296L49.3528 57.08ZM49.6912 58.052C49.6912 58.5967 49.4805 59.5857 49.0105 61.069L49.9638 61.371C50.4325 59.8916 50.6912 58.7686 50.6912 58.052H49.6912ZM49.0092 61.0733C48.5567 62.5473 47.9647 64.3456 47.2325 66.469L48.1779 66.795C48.9123 64.6651 49.5083 62.8553 49.9652 61.3667L49.0092 61.0733ZM47.2318 66.4709C46.5109 68.5897 45.9567 70.3915 45.5713 71.8742L46.5391 72.1258C46.9163 70.6751 47.4621 68.8983 48.1785 66.7931L47.2318 66.4709ZM55.0899 71.736L55.2655 72.2042L55.6659 72.054L55.5797 71.6352L55.0899 71.736ZM52.2079 71.494L51.8766 71.8686L51.8837 71.8746L52.2079 71.494ZM51.8559 66.742L52.354 66.7861L52.354 66.7857L51.8559 66.742ZM51.6139 56.644L51.4384 56.1758L51.038 56.326L51.1242 56.7448L51.6139 56.644ZM54.4739 56.886L54.1426 57.2606L54.1497 57.2666L54.4739 56.886ZM54.8479 61.66L55.346 61.7041L55.346 61.7037L54.8479 61.66ZM54.9144 71.2678C54.5041 71.4217 54.0652 71.5 53.5939 71.5V72.5C54.1787 72.5 54.7371 72.4023 55.2655 72.2042L54.9144 71.2678ZM53.5939 71.5C53.1828 71.5 52.8362 71.3724 52.5322 71.1134L51.8837 71.8746C52.3716 72.2903 52.9491 72.5 53.5939 72.5V71.5ZM52.5392 71.1195C52.282 70.892 52.1359 70.5756 52.1359 70.108H51.1359C51.1359 70.8138 51.3712 71.4214 51.8767 71.8685L52.5392 71.1195ZM52.1359 70.108C52.1359 69.5468 52.2071 68.4462 52.354 66.7861L51.3579 66.6979C51.2115 68.3525 51.1359 69.4959 51.1359 70.108H52.1359ZM52.354 66.7857C52.5012 65.1075 52.5759 63.7564 52.5759 62.738H51.5759C51.5759 63.7143 51.504 65.0325 51.3579 66.6983L52.354 66.7857ZM52.5759 62.738C52.5759 60.157 52.4216 58.0872 52.1037 56.5432L51.1242 56.7448C51.4223 58.1928 51.5759 60.1857 51.5759 62.738H52.5759ZM51.7895 57.1122C52.1998 56.9583 52.6387 56.88 53.1099 56.88V55.88C52.5252 55.88 51.9668 55.9777 51.4384 56.1758L51.7895 57.1122ZM53.1099 56.88C53.5209 56.88 53.8564 57.0073 54.1427 57.2605L54.8052 56.5115C54.3288 56.0901 53.755 55.88 53.1099 55.88V56.88ZM54.1497 57.2666C54.4192 57.4962 54.5679 57.8109 54.5679 58.272H55.5679C55.5679 57.5598 55.3207 56.9505 54.7982 56.5054L54.1497 57.2666ZM54.5679 58.272C54.5679 58.8334 54.4968 59.9414 54.3499 61.6163L55.346 61.7037C55.4924 60.0346 55.5679 58.8839 55.5679 58.272H54.5679ZM54.3499 61.6159C54.2027 63.2796 54.1279 64.6235 54.1279 65.642H55.1279C55.1279 64.6658 55.1999 63.355 55.346 61.7041L54.3499 61.6159ZM54.1279 65.642C54.1279 68.223 54.2823 70.2928 54.6002 71.8368L55.5797 71.6352C55.2816 70.1872 55.1279 68.1943 55.1279 65.642H54.1279ZM66.845 56.6L66.6214 56.1528L66.2944 56.3163L66.351 56.6775L66.845 56.6ZM69.595 56.732L69.2414 57.0856L69.2494 57.0933L69.595 56.732ZM69.903 60.912L70.4012 60.9547L70.4012 60.9543L69.903 60.912ZM70.101 71.868L70.2766 72.3362L70.6503 72.196L70.5964 71.8004L70.101 71.868ZM67.175 71.846L67.4294 71.4155L67.4252 71.4131L67.175 71.846ZM60.597 61.55L61.036 61.3106L60.2641 59.895L60.0996 61.499L60.597 61.55ZM60.993 71.736L61.1735 72.2023L61.5508 72.0562L61.4867 71.6567L60.993 71.736ZM58.221 71.494L57.8596 71.8397L57.8674 71.8476L58.221 71.494ZM57.935 67.336L57.4374 67.2872L57.4369 67.2921L57.935 67.336ZM57.737 56.688L57.5134 56.2408L57.1903 56.4023L57.2422 56.7598L57.737 56.688ZM61.213 57.326L61.6617 57.1054L61.6581 57.0983L61.213 57.326ZM67.439 68.546L67.019 68.8173L67.9662 70.2837L67.9389 68.5382L67.439 68.546ZM67.0686 57.0472C67.4701 56.8465 67.885 56.748 68.319 56.748V55.748C67.7263 55.748 67.1586 55.8842 66.6214 56.1528L67.0686 57.0472ZM68.319 56.748C68.7369 56.748 69.0274 56.8715 69.2414 57.0856L69.9485 56.3784C69.5173 55.9472 68.9571 55.748 68.319 55.748V56.748ZM69.2494 57.0933C69.4911 57.3245 69.601 57.5838 69.601 57.898H70.601C70.601 57.3028 70.3736 56.7848 69.9406 56.3707L69.2494 57.0933ZM69.601 57.898C69.601 58.3273 69.5373 59.3094 69.4048 60.8697L70.4012 60.9543C70.5327 59.4053 70.601 58.378 70.601 57.898H69.601ZM69.4048 60.8693C69.2723 62.4152 69.205 63.656 69.205 64.586H70.205C70.205 63.6974 70.2697 62.4888 70.4012 60.9547L69.4048 60.8693ZM69.205 64.586C69.205 67.5174 69.3374 69.9692 69.6056 71.9356L70.5964 71.8004C70.3366 69.8948 70.205 67.4919 70.205 64.586H69.205ZM69.9254 71.3998C69.5209 71.5515 69.0537 71.632 68.517 71.632V72.632C69.1536 72.632 69.7424 72.5365 70.2766 72.3362L69.9254 71.3998ZM68.517 71.632C67.9911 71.632 67.6447 71.5428 67.4294 71.4155L66.9206 72.2765C67.3506 72.5306 67.8989 72.632 68.517 72.632V71.632ZM67.4252 71.4131C67.2815 71.33 67.0194 71.0838 66.6286 70.5878C66.2516 70.1093 65.7918 69.4472 65.2478 68.5958C64.1607 66.8942 62.7573 64.4676 61.036 61.3106L60.158 61.7894C61.8834 64.9538 63.2996 67.4038 64.4051 69.1342C64.9575 69.9988 65.4373 70.6916 65.8431 71.2067C66.2352 71.7043 66.5992 72.0906 66.9247 72.2789L67.4252 71.4131ZM60.0996 61.499C60.0378 62.1018 60.009 63.4721 60.009 65.576H61.009C61.009 63.4559 61.0389 62.1422 61.0944 61.601L60.0996 61.499ZM60.009 65.576C60.009 67.6991 60.1723 69.7789 60.4993 71.8153L61.4867 71.6567C61.1683 69.6744 61.009 67.6476 61.009 65.576H60.009ZM60.8125 71.2697C60.42 71.4216 59.9904 71.5 59.519 71.5V72.5C60.1036 72.5 60.6566 72.4024 61.1735 72.2023L60.8125 71.2697ZM59.519 71.5C59.1081 71.5 58.8077 71.3736 58.5745 71.1404L57.8674 71.8476C58.309 72.2891 58.8739 72.5 59.519 72.5V71.5ZM58.5823 71.1484C58.3492 70.9047 58.237 70.6253 58.237 70.284H57.237C57.237 70.8813 57.4475 71.4087 57.8597 71.8396L58.5823 71.1484ZM58.237 70.284C58.237 69.8407 58.3006 68.8807 58.4331 67.3799L57.4369 67.2921C57.3053 68.7833 57.237 69.7886 57.237 70.284H58.237ZM58.4326 67.3848C58.5797 65.8849 58.655 64.7359 58.655 63.948H57.655C57.655 64.6855 57.5837 65.7951 57.4374 67.2872L58.4326 67.3848ZM58.655 63.948C58.655 61.016 58.5152 58.57 58.2318 56.6162L57.2422 56.7598C57.5161 58.6487 57.655 61.0427 57.655 63.948H58.655ZM57.9606 57.1352C58.2685 56.9812 58.778 56.88 59.541 56.88V55.88C58.72 55.88 58.0268 55.9841 57.5134 56.2408L57.9606 57.1352ZM59.541 56.88C59.8709 56.88 60.119 56.9455 60.3068 57.0517C60.4913 57.1561 60.6462 57.3159 60.7679 57.5537L61.6581 57.0983C61.4571 56.7054 61.172 56.3922 60.7992 56.1813C60.4296 55.9722 60.0031 55.88 59.541 55.88V56.88ZM60.7643 57.5466C62.9408 61.9732 65.0256 65.7311 67.019 68.8173L67.859 68.2747C65.8924 65.2302 63.8265 61.5082 61.6617 57.1054L60.7643 57.5466ZM67.9389 68.5382C67.8949 65.7181 67.873 64.2362 67.873 64.08H66.873C66.873 64.2465 66.8951 65.7419 66.9391 68.5538L67.9389 68.5382ZM67.873 64.08C67.873 61.3165 67.6957 58.7968 67.339 56.5225L66.351 56.6775C66.6983 58.8912 66.873 61.3581 66.873 64.08H67.873ZM78.9673 63.42L78.665 63.0217L78.3371 63.2706L78.5184 63.6402L78.9673 63.42ZM81.7613 67.754L81.3755 68.072L81.3776 68.0745L81.7613 67.754ZM84.8853 70.196H85.3853V69.8251L85.0303 69.7175L84.8853 70.196ZM84.4013 71.626L84.04 71.2804V71.2804L84.4013 71.626ZM80.2653 70.482L79.8975 70.8208L79.9022 70.8257L80.2653 70.482ZM77.5593 66.742L77.1238 66.9876L77.5593 66.742ZM75.9313 63.112L75.7321 62.6534L75.3264 62.8296L75.4519 63.2538L75.9313 63.112ZM79.6493 60.186L80.044 60.493L80.0456 60.4909L79.6493 60.186ZM81.1893 56.248V55.748H80.6893V56.248H81.1893ZM82.8173 56.578L82.5995 57.0281L82.6051 57.0307L82.8173 56.578ZM82.1573 60.406L81.7741 60.0849V60.0849L82.1573 60.406ZM75.8653 71.736L76.0409 72.2042L76.4413 72.054L76.3551 71.6352L75.8653 71.736ZM72.9833 71.494L72.652 71.8686L72.6591 71.8746L72.9833 71.494ZM72.6313 66.742L73.1294 66.7861L73.1294 66.7857L72.6313 66.742ZM72.3893 56.644L72.2138 56.1758L71.8134 56.326L71.8996 56.7448L72.3893 56.644ZM75.2493 56.886L74.918 57.2606L74.9251 57.2666L75.2493 56.886ZM75.6233 61.66L76.1214 61.7041L76.1214 61.7037L75.6233 61.66ZM78.5184 63.6402C79.2982 65.2298 80.2507 66.7073 81.3755 68.072L82.1472 67.436C81.072 66.1314 80.1618 64.7196 79.4162 63.1998L78.5184 63.6402ZM81.3776 68.0745C82.5149 69.4364 83.6335 70.3391 84.7403 70.6745L85.0303 69.7175C84.2012 69.4662 83.2371 68.741 82.1451 67.4335L81.3776 68.0745ZM84.3853 70.196C84.3853 70.7256 84.2482 71.0628 84.04 71.2804L84.7627 71.9716C85.1999 71.5145 85.3853 70.8984 85.3853 70.196H84.3853ZM84.04 71.2804C83.8369 71.4927 83.5216 71.632 83.0153 71.632V72.632C83.7117 72.632 84.3204 72.4339 84.7627 71.9716L84.04 71.2804ZM83.0153 71.632C82.4426 71.632 81.6524 71.2199 80.6284 70.1383L79.9022 70.8257C80.9609 71.9441 82.0041 72.632 83.0153 72.632V71.632ZM80.6331 70.1433C79.6337 69.0582 78.7541 67.843 77.9949 66.4964L77.1238 66.9876C77.9192 68.3983 78.8437 69.6765 79.8976 70.8207L80.6331 70.1433ZM77.9949 66.4964C77.2284 65.1371 76.7045 63.9631 76.4108 62.9702L75.4519 63.2538C75.7742 64.3436 76.3356 65.5896 77.1238 66.9876L77.9949 66.4964ZM76.1305 63.5706C77.6637 62.9047 78.9689 61.8752 80.044 60.493L79.2547 59.879C78.2764 61.1368 77.103 62.058 75.7321 62.6534L76.1305 63.5706ZM80.0456 60.4909C81.119 59.0955 81.6893 57.6785 81.6893 56.248H80.6893C80.6893 57.3989 80.233 58.6072 79.253 59.8811L80.0456 60.4909ZM81.1893 56.748C81.7629 56.748 82.2275 56.8481 82.5996 57.0281L83.0351 56.1279C82.4978 55.8679 81.8771 55.748 81.1893 55.748V56.748ZM82.6051 57.0307C82.7757 57.1107 82.8729 57.1998 82.9293 57.2843C82.9843 57.3668 83.0213 57.4761 83.0213 57.634H84.0213C84.0213 57.3079 83.941 56.9992 83.7614 56.7296C83.5831 56.4622 83.3283 56.2653 83.0296 56.1253L82.6051 57.0307ZM83.0213 57.634C83.0213 58.2139 82.6647 59.0218 81.7741 60.0849L82.5406 60.7271C83.4686 59.6195 84.0213 58.5795 84.0213 57.634H83.0213ZM81.7741 60.0849C80.8906 61.1394 79.8549 62.1186 78.665 63.0217L79.2696 63.8183C80.5144 62.8734 81.6054 61.8433 82.5406 60.7271L81.7741 60.0849ZM75.6898 71.2678C75.2795 71.4217 74.8406 71.5 74.3693 71.5V72.5C74.9541 72.5 75.5125 72.4023 76.0409 72.2042L75.6898 71.2678ZM74.3693 71.5C73.9582 71.5 73.6116 71.3724 73.3076 71.1134L72.6591 71.8746C73.147 72.2903 73.7245 72.5 74.3693 72.5V71.5ZM73.3146 71.1195C73.0574 70.892 72.9113 70.5756 72.9113 70.108H71.9113C71.9113 70.8138 72.1466 71.4214 72.652 71.8685L73.3146 71.1195ZM72.9113 70.108C72.9113 69.5468 72.9825 68.4462 73.1294 66.7861L72.1333 66.6979C71.9869 68.3525 71.9113 69.4959 71.9113 70.108H72.9113ZM73.1294 66.7857C73.2766 65.1075 73.3513 63.7564 73.3513 62.738H72.3513C72.3513 63.7143 72.2794 65.0325 72.1332 66.6983L73.1294 66.7857ZM73.3513 62.738C73.3513 60.157 73.1969 58.0872 72.8791 56.5432L71.8996 56.7448C72.1977 58.1928 72.3513 60.1857 72.3513 62.738H73.3513ZM72.5649 57.1122C72.9751 56.9583 73.4141 56.88 73.8853 56.88V55.88C73.3006 55.88 72.7422 55.9777 72.2138 56.1758L72.5649 57.1122ZM73.8853 56.88C74.2962 56.88 74.6318 57.0073 74.9181 57.2605L75.5806 56.5115C75.1042 56.0901 74.5304 55.88 73.8853 55.88V56.88ZM74.9251 57.2666C75.1946 57.4962 75.3433 57.8109 75.3433 58.272H76.3433C76.3433 57.5598 76.0961 56.9505 75.5736 56.5054L74.9251 57.2666ZM75.3433 58.272C75.3433 58.8334 75.2722 59.9414 75.1253 61.6163L76.1214 61.7037C76.2678 60.0346 76.3433 58.8839 76.3433 58.272H75.3433ZM75.1253 61.6159C74.9781 63.2796 74.9033 64.6235 74.9033 65.642H75.9033C75.9033 64.6658 75.9753 63.355 76.1214 61.7041L75.1253 61.6159ZM74.9033 65.642C74.9033 68.223 75.0577 70.2928 75.3756 71.8368L76.3551 71.6352C76.0569 70.1872 75.9033 68.1943 75.9033 65.642H74.9033ZM86.4616 56.644L86.286 56.1758L85.9054 56.3186L85.9675 56.7203L86.4616 56.644ZM89.7176 61.352L90.2151 61.4018L90.2152 61.4013L89.7176 61.352ZM89.6516 69.866L89.154 69.9151L89.1938 70.3182L89.5964 70.3629L89.6516 69.866ZM95.9436 68.964L96.4005 68.7609L96.1982 68.3057L95.7422 68.5063L95.9436 68.964ZM95.6796 71.604L95.3189 71.2577L95.3186 71.258L95.6796 71.604ZM87.5836 71.868L87.5573 72.3673L87.5586 72.3674L87.5836 71.868ZM86.8576 71.626L86.5487 72.0192L86.5577 72.0262L86.567 72.0329L86.8576 71.626ZM86.7256 67.094L86.2269 67.0584L86.2266 67.0623L86.7256 67.094ZM86.6372 57.1122C87.0459 56.9589 87.4919 56.88 87.9796 56.88V55.88C87.382 55.88 86.816 55.9771 86.286 56.1758L86.6372 57.1122ZM87.9796 56.88C88.5662 56.88 88.9129 57.0145 89.1116 57.1953C89.3013 57.368 89.4376 57.6578 89.4376 58.162H90.4376C90.4376 57.4782 90.2476 56.877 89.7846 56.4557C89.3306 56.0425 88.6983 55.88 87.9796 55.88V56.88ZM89.4376 58.162C89.4376 58.7804 89.3666 59.8223 89.22 61.3027L90.2152 61.4013C90.3619 59.9191 90.4376 58.8342 90.4376 58.162H89.4376ZM89.2201 61.3022C89.0716 62.7866 88.9976 64.3286 88.9976 65.928H89.9976C89.9976 64.3594 90.0702 62.8507 90.2151 61.4018L89.2201 61.3022ZM88.9976 65.928C88.9976 67.521 89.0491 68.8514 89.154 69.9151L90.1492 69.8169C90.0487 68.7979 89.9976 67.503 89.9976 65.928H88.9976ZM89.5964 70.3629C90.0106 70.409 90.425 70.432 90.8396 70.432V69.432C90.4622 69.432 90.0846 69.411 89.7068 69.3691L89.5964 70.3629ZM90.8396 70.432C92.8308 70.432 94.6031 70.1001 96.145 69.4217L95.7422 68.5063C94.3508 69.1186 92.7204 69.432 90.8396 69.432V70.432ZM95.4867 69.1671C95.6303 69.4902 95.7076 69.8668 95.7076 70.306H96.7076C96.7076 69.7479 96.6089 69.2298 96.4005 68.7609L95.4867 69.1671ZM95.7076 70.306C95.7076 70.6728 95.5834 70.9822 95.3189 71.2577L96.0403 71.9503C96.4798 71.4925 96.7076 70.9365 96.7076 70.306H95.7076ZM95.3186 71.258C95.078 71.5091 94.7915 71.632 94.4256 71.632V72.632C95.0571 72.632 95.6066 72.4029 96.0406 71.95L95.3186 71.258ZM94.4256 71.632C93.3992 71.632 91.1318 71.5448 87.6086 71.3686L87.5586 72.3674C91.0754 72.5432 93.3693 72.632 94.4256 72.632V71.632ZM87.6099 71.3687C87.4159 71.3585 87.268 71.3047 87.1482 71.2191L86.567 72.0329C86.8579 72.2407 87.194 72.3482 87.5573 72.3673L87.6099 71.3687ZM87.1665 71.2328C87.0663 71.1541 87.0496 71.0945 87.0496 71.032H86.0496C86.0496 71.4388 86.2382 71.7752 86.5487 72.0192L87.1665 71.2328ZM87.0496 71.032C87.0496 70.2721 87.1073 68.9735 87.2246 67.1257L86.2266 67.0623C86.1093 68.9105 86.0496 70.2372 86.0496 71.032H87.0496ZM87.2243 67.1296C87.357 65.2719 87.4236 63.5585 87.4236 61.99H86.4236C86.4236 63.5308 86.3582 65.2201 86.2269 67.0584L87.2243 67.1296ZM87.4236 61.99C87.4236 60.3891 87.2666 58.5809 86.9557 56.5677L85.9675 56.7203C86.2726 58.6965 86.4236 60.4522 86.4236 61.99H87.4236ZM107.684 68.964L108.141 68.7609L107.939 68.3057L107.483 68.5063L107.684 68.964ZM107.42 71.604L107.06 71.2577L107.059 71.258L107.42 71.604ZM98.8624 71.868L98.8346 72.3672L98.8359 72.3673L98.8624 71.868ZM98.1584 71.626L97.8495 72.0192L97.8585 72.0262L97.8678 72.0329L98.1584 71.626ZM98.0264 67.094L97.5276 67.0584L97.5274 67.0623L98.0264 67.094ZM97.7624 56.38L97.8028 55.8816L97.1757 55.8308L97.2678 56.4531L97.7624 56.38ZM107.398 56.116L107.837 55.8766L107.669 55.5671L107.32 55.6221L107.398 56.116ZM107.134 58.47L107.488 58.8236L107.134 58.47ZM103.438 58.756L103.372 59.2516L103.373 59.2517L103.438 58.756ZM100.996 58.536V58.036H100.534L100.498 58.4965L100.996 58.536ZM100.798 62.716L100.298 62.7104L100.293 63.1702L100.751 63.2137L100.798 62.716ZM106.518 62.386L106.957 62.1466L106.744 61.7556L106.331 61.9224L106.518 62.386ZM106.254 64.762L105.894 64.4157L105.893 64.416L106.254 64.762ZM102.91 65.026L102.811 65.516L102.818 65.5174L102.91 65.026ZM100.776 64.74V64.24H100.276V64.74H100.776ZM100.93 69.844L100.433 69.8911L100.472 70.3075L100.889 70.3423L100.93 69.844ZM107.227 69.1671C107.371 69.4902 107.448 69.8668 107.448 70.306H108.448C108.448 69.7479 108.35 69.2298 108.141 68.7609L107.227 69.1671ZM107.448 70.306C107.448 70.6728 107.324 70.9822 107.06 71.2577L107.781 71.9503C108.221 71.4925 108.448 70.9365 108.448 70.306H107.448ZM107.059 71.258C106.819 71.5091 106.532 71.632 106.166 71.632V72.632C106.798 72.632 107.347 72.4029 107.781 71.95L107.059 71.258ZM106.166 71.632C104.626 71.632 102.202 71.5446 98.8889 71.3687L98.8359 72.3673C102.152 72.5434 104.598 72.632 106.166 72.632V71.632ZM98.8901 71.3688C98.716 71.3591 98.5734 71.308 98.449 71.2191L97.8678 72.0329C98.154 72.2373 98.4808 72.3476 98.8346 72.3672L98.8901 71.3688ZM98.4673 71.2328C98.3671 71.1541 98.3504 71.0945 98.3504 71.032H97.3504C97.3504 71.4388 97.539 71.7752 97.8495 72.0192L98.4673 71.2328ZM98.3504 71.032C98.3504 70.2721 98.4081 68.9735 98.5254 67.1257L97.5274 67.0623C97.41 68.9105 97.3504 70.2372 97.3504 71.032H98.3504ZM98.5251 67.1296C98.6578 65.2716 98.7244 63.5362 98.7244 61.924H97.7244C97.7244 63.5091 97.6589 65.2204 97.5277 67.0584L98.5251 67.1296ZM98.7244 61.924C98.7244 60.2801 98.5676 58.4069 98.257 56.3069L97.2678 56.4531C97.5732 58.5185 97.7244 60.3412 97.7244 61.924H98.7244ZM97.722 56.8784C98.8267 56.9679 100.301 57.012 102.14 57.012V56.012C100.313 56.012 98.8687 55.9681 97.8028 55.8816L97.722 56.8784ZM102.14 57.012C103.998 57.012 105.777 56.8783 107.476 56.6099L107.32 55.6221C105.676 55.8817 103.95 56.012 102.14 56.012V57.012ZM106.959 56.3554C107.087 56.5892 107.162 56.8914 107.162 57.282H108.162C108.162 56.7632 108.062 56.2881 107.837 55.8766L106.959 56.3554ZM107.162 57.282C107.162 57.5715 107.052 57.8448 106.781 58.1164L107.488 58.8236C107.92 58.3912 108.162 57.8725 108.162 57.282H107.162ZM106.781 58.1164C106.545 58.3524 106.25 58.476 105.858 58.476V59.476C106.493 59.476 107.049 59.2623 107.488 58.8236L106.781 58.1164ZM105.858 58.476C105.395 58.476 104.617 58.4067 103.504 58.2603L103.373 59.2517C104.49 59.3986 105.324 59.476 105.858 59.476V58.476ZM103.504 58.2604C102.401 58.1132 101.559 58.036 100.996 58.036V59.036C101.489 59.036 102.276 59.1054 103.372 59.2516L103.504 58.2604ZM100.498 58.4965C100.38 59.9876 100.313 61.3923 100.298 62.7104L101.298 62.7216C101.313 61.429 101.378 60.0471 101.495 58.5755L100.498 58.4965ZM100.751 63.2137C101.693 63.3034 102.699 63.348 103.768 63.348V62.348C102.726 62.348 101.752 62.3046 100.846 62.2183L100.751 63.2137ZM103.768 63.348C104.885 63.348 105.868 63.1877 106.706 62.8496L106.331 61.9224C105.643 62.2003 104.793 62.348 103.768 62.348V63.348ZM106.079 62.6254C106.207 62.8592 106.282 63.1614 106.282 63.552H107.282C107.282 63.0332 107.182 62.5581 106.957 62.1466L106.079 62.6254ZM106.282 63.552C106.282 63.8429 106.171 64.1266 105.894 64.4157L106.615 65.1083C107.042 64.664 107.282 64.1411 107.282 63.552H106.282ZM105.893 64.416C105.65 64.6705 105.369 64.79 105.022 64.79V65.79C105.644 65.79 106.185 65.5575 106.615 65.108L105.893 64.416ZM105.022 64.79C104.602 64.79 103.935 64.7094 103.003 64.5346L102.818 65.5174C103.763 65.6946 104.505 65.79 105.022 65.79V64.79ZM103.01 64.536C102.064 64.3438 101.312 64.24 100.776 64.24V65.24C101.208 65.24 101.88 65.3269 102.811 65.516L103.01 64.536ZM100.276 64.74C100.276 67.0597 100.328 68.7808 100.433 69.8911L101.428 69.7969C101.328 68.7365 101.276 67.055 101.276 64.74H100.276ZM100.889 70.3423C101.598 70.4014 102.164 70.432 102.58 70.432V69.432C102.205 69.432 101.671 69.404 100.972 69.3457L100.889 70.3423ZM102.58 70.432C104.572 70.432 106.344 70.1001 107.886 69.4217L107.483 68.5063C106.092 69.1186 104.461 69.432 102.58 69.432V70.432Z" fill="#EF8B8B" fill-opacity="0.06" mask="url(#path-7-outside-1_2765_287137)"/>
</g>
<g filter="url(#filter2_d_2765_287137)">
<mask id="path-9-outside-2_2765_287137" maskUnits="userSpaceOnUse" x="26" y="75" width="73" height="19" fill="black">
<rect fill="white" x="26" y="75" width="73" height="19"/>
<path d="M30.3071 85.32C30.3071 88.408 30.4751 90.872 30.8111 92.712C30.2991 92.904 29.7551 93 29.1791 93C28.6031 93 28.0991 92.816 27.6671 92.448C27.2511 92.08 27.0431 91.576 27.0431 90.936C27.0431 90.28 27.1231 89.048 27.2831 87.24C27.4431 85.432 27.5231 84.032 27.5231 83.04C27.5231 80.592 27.3551 78.232 27.0191 75.96C28.2031 76.056 29.7951 76.104 31.7951 76.104C33.7951 76.104 35.7071 75.96 37.5311 75.672C37.7231 76.024 37.8191 76.448 37.8191 76.944C37.8191 77.424 37.6271 77.856 37.2431 78.24C36.8751 78.608 36.4111 78.792 35.8511 78.792C35.3071 78.792 34.4271 78.712 33.2111 78.552C32.0111 78.392 31.1231 78.312 30.5471 78.312C30.4191 80.056 30.3391 81.656 30.3071 83.112C31.2351 83.208 32.2591 83.256 33.3791 83.256C34.5151 83.256 35.4991 83.088 36.3311 82.752C36.5231 83.104 36.6191 83.528 36.6191 84.024C36.6191 84.504 36.4271 84.944 36.0431 85.344C35.6751 85.728 35.2351 85.92 34.7231 85.92C34.2111 85.92 33.4751 85.824 32.5151 85.632C31.5551 85.424 30.8191 85.32 30.3071 85.32ZM42.9663 76.152C43.6383 75.928 44.2463 75.816 44.7903 75.816C45.6223 75.816 46.2703 76.112 46.7343 76.704C47.1983 77.28 47.5583 78.104 47.8143 79.176C47.8943 79.496 48.0543 80.2 48.2943 81.288C48.5503 82.376 48.7583 83.256 48.9183 83.928C49.4143 86.024 49.8623 87.648 50.2623 88.8C50.6783 89.952 51.3343 90.872 52.2303 91.56C52.0383 92.04 51.7183 92.424 51.2703 92.712C50.8383 93 50.3663 93.144 49.8543 93.144C48.6863 93.144 47.8303 92.264 47.2863 90.504C47.0303 89.688 46.7983 88.888 46.5903 88.104C46.0303 88.296 45.3343 88.392 44.5023 88.392C43.6863 88.392 42.6783 88.304 41.4783 88.128C40.9823 90.064 40.7343 91.52 40.7343 92.496C40.7343 92.704 40.7423 92.856 40.7583 92.952C40.5503 92.984 40.1983 93 39.7023 93C39.2063 93 38.7663 92.848 38.3823 92.544C38.0143 92.224 37.8303 91.776 37.8303 91.2C37.8303 90.4 38.5983 88.056 40.1343 84.168C41.6703 80.28 42.6143 77.608 42.9663 76.152ZM42.0303 86.112C42.6703 86.192 43.3183 86.232 43.9743 86.232C44.6463 86.232 45.3583 86.16 46.1103 86.016C45.9663 85.36 45.4783 82.848 44.6463 78.48C43.6543 81.056 42.7823 83.6 42.0303 86.112ZM64.2119 76.2C64.7239 75.944 65.2599 75.816 65.8199 75.816C66.3959 75.816 66.8599 75.992 67.2119 76.344C67.5799 76.696 67.7639 77.12 67.7639 77.616C67.7639 78.112 67.6919 79.208 67.5479 80.904C67.4039 82.584 67.3319 83.92 67.3319 84.912C67.3319 88.096 67.4759 90.744 67.7639 92.856C67.2519 93.048 66.6759 93.144 66.0359 93.144C65.4119 93.144 64.9239 93.04 64.5719 92.832C63.5479 92.24 61.1559 88.496 57.3959 81.6C57.3319 82.224 57.2999 83.688 57.2999 85.992C57.2999 88.28 57.4759 90.52 57.8279 92.712C57.3319 92.904 56.7959 93 56.2199 93C55.6439 93 55.1719 92.816 54.8039 92.448C54.4519 92.08 54.2759 91.64 54.2759 91.128C54.2759 90.616 54.3479 89.544 54.4919 87.912C54.6519 86.28 54.7319 85.048 54.7319 84.216C54.7319 81.032 54.5799 78.392 54.2759 76.296C54.7239 76.072 55.3799 75.96 56.2439 75.96C57.1079 75.96 57.7159 76.304 58.0679 76.992C60.4359 81.808 62.6999 85.888 64.8599 89.232C64.8119 86.16 64.7879 84.536 64.7879 84.36C64.7879 81.368 64.5959 78.648 64.2119 76.2ZM78.0363 75.672C79.4283 75.672 80.6443 76.08 81.6843 76.896C82.7243 77.712 83.2443 78.768 83.2443 80.064C83.2443 80.752 83.0523 81.32 82.6683 81.768C82.2843 82.216 81.8123 82.44 81.2523 82.44C80.6923 82.44 80.2443 82.368 79.9083 82.224C79.9563 81.968 79.9803 81.696 79.9803 81.408C79.9643 80.4 79.7163 79.584 79.2363 78.96C78.7563 78.32 78.0523 78 77.1243 78C76.2123 78 75.3643 78.296 74.5803 78.888C74.1163 79.56 73.7563 80.44 73.5003 81.528C73.2443 82.616 73.1163 83.688 73.1163 84.744C73.1163 86.504 73.4523 87.984 74.1243 89.184C74.8123 90.368 75.8763 90.96 77.3163 90.96C78.6443 90.96 79.5403 90.456 80.0043 89.448C80.4363 88.568 80.6523 87.4 80.6523 85.944C81.4683 85.944 82.1483 86.096 82.6923 86.4C83.2363 86.688 83.5083 87.168 83.5083 87.84C83.5083 89.408 82.8203 90.712 81.4443 91.752C80.0683 92.776 78.5163 93.288 76.7883 93.288C74.5323 93.288 72.8203 92.544 71.6523 91.056C70.4843 89.552 69.9003 87.52 69.9003 84.96C69.9003 82.4 70.6283 80.216 72.0843 78.408C73.5563 76.584 75.5403 75.672 78.0363 75.672ZM84.5956 77.208C84.9796 76.376 85.6836 75.96 86.7076 75.96C88.6116 75.96 90.4116 78.696 92.1076 84.168C93.0996 82.68 93.9476 81.168 94.6516 79.632C95.3716 78.08 95.7316 76.808 95.7316 75.816C97.4276 75.816 98.2756 76.264 98.2756 77.16C98.2756 77.784 97.8916 78.712 97.1236 79.944C96.3556 81.176 95.5236 82.448 94.6276 83.76C93.7476 85.056 93.2276 86.008 93.0676 86.616C93.0196 87.24 92.9956 88.008 92.9956 88.92C92.9956 89.832 93.1076 91.096 93.3316 92.712C92.8196 92.904 92.2756 93 91.6996 93C91.1236 93 90.6196 92.816 90.1876 92.448C89.7716 92.08 89.5636 91.616 89.5636 91.056C89.5636 90.48 89.6596 89.024 89.8516 86.688C88.6196 81.888 86.8676 78.728 84.5956 77.208Z"/>
</mask>
<path d="M30.3071 85.32C30.3071 88.408 30.4751 90.872 30.8111 92.712C30.2991 92.904 29.7551 93 29.1791 93C28.6031 93 28.0991 92.816 27.6671 92.448C27.2511 92.08 27.0431 91.576 27.0431 90.936C27.0431 90.28 27.1231 89.048 27.2831 87.24C27.4431 85.432 27.5231 84.032 27.5231 83.04C27.5231 80.592 27.3551 78.232 27.0191 75.96C28.2031 76.056 29.7951 76.104 31.7951 76.104C33.7951 76.104 35.7071 75.96 37.5311 75.672C37.7231 76.024 37.8191 76.448 37.8191 76.944C37.8191 77.424 37.6271 77.856 37.2431 78.24C36.8751 78.608 36.4111 78.792 35.8511 78.792C35.3071 78.792 34.4271 78.712 33.2111 78.552C32.0111 78.392 31.1231 78.312 30.5471 78.312C30.4191 80.056 30.3391 81.656 30.3071 83.112C31.2351 83.208 32.2591 83.256 33.3791 83.256C34.5151 83.256 35.4991 83.088 36.3311 82.752C36.5231 83.104 36.6191 83.528 36.6191 84.024C36.6191 84.504 36.4271 84.944 36.0431 85.344C35.6751 85.728 35.2351 85.92 34.7231 85.92C34.2111 85.92 33.4751 85.824 32.5151 85.632C31.5551 85.424 30.8191 85.32 30.3071 85.32ZM42.9663 76.152C43.6383 75.928 44.2463 75.816 44.7903 75.816C45.6223 75.816 46.2703 76.112 46.7343 76.704C47.1983 77.28 47.5583 78.104 47.8143 79.176C47.8943 79.496 48.0543 80.2 48.2943 81.288C48.5503 82.376 48.7583 83.256 48.9183 83.928C49.4143 86.024 49.8623 87.648 50.2623 88.8C50.6783 89.952 51.3343 90.872 52.2303 91.56C52.0383 92.04 51.7183 92.424 51.2703 92.712C50.8383 93 50.3663 93.144 49.8543 93.144C48.6863 93.144 47.8303 92.264 47.2863 90.504C47.0303 89.688 46.7983 88.888 46.5903 88.104C46.0303 88.296 45.3343 88.392 44.5023 88.392C43.6863 88.392 42.6783 88.304 41.4783 88.128C40.9823 90.064 40.7343 91.52 40.7343 92.496C40.7343 92.704 40.7423 92.856 40.7583 92.952C40.5503 92.984 40.1983 93 39.7023 93C39.2063 93 38.7663 92.848 38.3823 92.544C38.0143 92.224 37.8303 91.776 37.8303 91.2C37.8303 90.4 38.5983 88.056 40.1343 84.168C41.6703 80.28 42.6143 77.608 42.9663 76.152ZM42.0303 86.112C42.6703 86.192 43.3183 86.232 43.9743 86.232C44.6463 86.232 45.3583 86.16 46.1103 86.016C45.9663 85.36 45.4783 82.848 44.6463 78.48C43.6543 81.056 42.7823 83.6 42.0303 86.112ZM64.2119 76.2C64.7239 75.944 65.2599 75.816 65.8199 75.816C66.3959 75.816 66.8599 75.992 67.2119 76.344C67.5799 76.696 67.7639 77.12 67.7639 77.616C67.7639 78.112 67.6919 79.208 67.5479 80.904C67.4039 82.584 67.3319 83.92 67.3319 84.912C67.3319 88.096 67.4759 90.744 67.7639 92.856C67.2519 93.048 66.6759 93.144 66.0359 93.144C65.4119 93.144 64.9239 93.04 64.5719 92.832C63.5479 92.24 61.1559 88.496 57.3959 81.6C57.3319 82.224 57.2999 83.688 57.2999 85.992C57.2999 88.28 57.4759 90.52 57.8279 92.712C57.3319 92.904 56.7959 93 56.2199 93C55.6439 93 55.1719 92.816 54.8039 92.448C54.4519 92.08 54.2759 91.64 54.2759 91.128C54.2759 90.616 54.3479 89.544 54.4919 87.912C54.6519 86.28 54.7319 85.048 54.7319 84.216C54.7319 81.032 54.5799 78.392 54.2759 76.296C54.7239 76.072 55.3799 75.96 56.2439 75.96C57.1079 75.96 57.7159 76.304 58.0679 76.992C60.4359 81.808 62.6999 85.888 64.8599 89.232C64.8119 86.16 64.7879 84.536 64.7879 84.36C64.7879 81.368 64.5959 78.648 64.2119 76.2ZM78.0363 75.672C79.4283 75.672 80.6443 76.08 81.6843 76.896C82.7243 77.712 83.2443 78.768 83.2443 80.064C83.2443 80.752 83.0523 81.32 82.6683 81.768C82.2843 82.216 81.8123 82.44 81.2523 82.44C80.6923 82.44 80.2443 82.368 79.9083 82.224C79.9563 81.968 79.9803 81.696 79.9803 81.408C79.9643 80.4 79.7163 79.584 79.2363 78.96C78.7563 78.32 78.0523 78 77.1243 78C76.2123 78 75.3643 78.296 74.5803 78.888C74.1163 79.56 73.7563 80.44 73.5003 81.528C73.2443 82.616 73.1163 83.688 73.1163 84.744C73.1163 86.504 73.4523 87.984 74.1243 89.184C74.8123 90.368 75.8763 90.96 77.3163 90.96C78.6443 90.96 79.5403 90.456 80.0043 89.448C80.4363 88.568 80.6523 87.4 80.6523 85.944C81.4683 85.944 82.1483 86.096 82.6923 86.4C83.2363 86.688 83.5083 87.168 83.5083 87.84C83.5083 89.408 82.8203 90.712 81.4443 91.752C80.0683 92.776 78.5163 93.288 76.7883 93.288C74.5323 93.288 72.8203 92.544 71.6523 91.056C70.4843 89.552 69.9003 87.52 69.9003 84.96C69.9003 82.4 70.6283 80.216 72.0843 78.408C73.5563 76.584 75.5403 75.672 78.0363 75.672ZM84.5956 77.208C84.9796 76.376 85.6836 75.96 86.7076 75.96C88.6116 75.96 90.4116 78.696 92.1076 84.168C93.0996 82.68 93.9476 81.168 94.6516 79.632C95.3716 78.08 95.7316 76.808 95.7316 75.816C97.4276 75.816 98.2756 76.264 98.2756 77.16C98.2756 77.784 97.8916 78.712 97.1236 79.944C96.3556 81.176 95.5236 82.448 94.6276 83.76C93.7476 85.056 93.2276 86.008 93.0676 86.616C93.0196 87.24 92.9956 88.008 92.9956 88.92C92.9956 89.832 93.1076 91.096 93.3316 92.712C92.8196 92.904 92.2756 93 91.6996 93C91.1236 93 90.6196 92.816 90.1876 92.448C89.7716 92.08 89.5636 91.616 89.5636 91.056C89.5636 90.48 89.6596 89.024 89.8516 86.688C88.6196 81.888 86.8676 78.728 84.5956 77.208Z" fill="#F7F4ED" fill-opacity="0.1" shape-rendering="crispEdges"/>
<path d="M30.3071 85.32V84.82H29.8071V85.32H30.3071ZM30.8111 92.712L30.9866 93.1802L31.378 93.0334L31.3029 92.6222L30.8111 92.712ZM27.6671 92.448L27.3357 92.8226L27.3428 92.8286L27.6671 92.448ZM27.0191 75.96L27.0595 75.4616L26.4324 75.4108L26.5244 76.0331L27.0191 75.96ZM37.5311 75.672L37.97 75.4326L37.8012 75.1231L37.4531 75.1781L37.5311 75.672ZM37.2431 78.24L37.5966 78.5936V78.5936L37.2431 78.24ZM33.2111 78.552L33.145 79.0476L33.1458 79.0477L33.2111 78.552ZM30.5471 78.312V77.812H30.0824L30.0484 78.2754L30.5471 78.312ZM30.3071 83.112L29.8072 83.101L29.7971 83.5619L30.2556 83.6093L30.3071 83.112ZM36.3311 82.752L36.77 82.5126L36.5568 82.1216L36.1438 82.2884L36.3311 82.752ZM36.0431 85.344L35.6824 84.9977L35.6821 84.998L36.0431 85.344ZM32.5151 85.632L32.4092 86.1207L32.417 86.1223L32.5151 85.632ZM29.8071 85.32C29.8071 88.4214 29.9754 90.9193 30.3192 92.8018L31.3029 92.6222C30.9747 90.8247 30.8071 88.3946 30.8071 85.32H29.8071ZM30.6355 92.2438C30.1826 92.4137 29.6983 92.5 29.1791 92.5V93.5C29.8118 93.5 30.4155 93.3943 30.9866 93.1802L30.6355 92.2438ZM29.1791 92.5C28.7199 92.5 28.3314 92.3571 27.9913 92.0674L27.3428 92.8286C27.8668 93.2749 28.4862 93.5 29.1791 93.5V92.5ZM27.9984 92.0735C27.7065 91.8153 27.5431 91.4569 27.5431 90.936H26.5431C26.5431 91.6951 26.7957 92.3447 27.3358 92.8225L27.9984 92.0735ZM27.5431 90.936C27.5431 90.3053 27.6209 89.0944 27.7811 87.2841L26.785 87.1959C26.6252 89.0016 26.5431 90.2547 26.5431 90.936H27.5431ZM27.7811 87.2841C27.9415 85.4713 28.0231 84.0541 28.0231 83.04H27.0231C27.0231 84.0099 26.9446 85.3927 26.785 87.1959L27.7811 87.2841ZM28.0231 83.04C28.0231 80.5691 27.8535 78.1846 27.5137 75.8869L26.5244 76.0331C26.8566 78.2794 27.0231 80.6149 27.0231 83.04H28.0231ZM26.9787 76.4584C28.1821 76.5559 29.7893 76.604 31.7951 76.604V75.604C29.8008 75.604 28.224 75.5561 27.0595 75.4616L26.9787 76.4584ZM31.7951 76.604C33.819 76.604 35.7572 76.4583 37.609 76.1659L37.4531 75.1781C35.6569 75.4617 33.7711 75.604 31.7951 75.604V76.604ZM37.0921 75.9114C37.2356 76.1745 37.3191 76.5121 37.3191 76.944H38.3191C38.3191 76.3839 38.2105 75.8735 37.97 75.4326L37.0921 75.9114ZM37.3191 76.944C37.3191 77.2735 37.1932 77.5828 36.8895 77.8864L37.5966 78.5936C38.061 78.1292 38.3191 77.5745 38.3191 76.944H37.3191ZM36.8895 77.8864C36.6229 78.1531 36.2896 78.292 35.8511 78.292V79.292C36.5325 79.292 37.1273 79.0629 37.5966 78.5936L36.8895 77.8864ZM35.8511 78.292C35.3425 78.292 34.4906 78.2161 33.2763 78.0563L33.1458 79.0477C34.3635 79.2079 35.2716 79.292 35.8511 79.292V78.292ZM33.2771 78.0564C32.0736 77.8959 31.1581 77.812 30.5471 77.812V78.812C31.088 78.812 31.9485 78.8881 33.145 79.0476L33.2771 78.0564ZM30.0484 78.2754C29.9199 80.0263 29.8394 81.635 29.8072 83.101L30.8069 83.123C30.8387 81.677 30.9182 80.0857 31.0457 78.3486L30.0484 78.2754ZM30.2556 83.6093C31.2037 83.7074 32.2452 83.756 33.3791 83.756V82.756C32.273 82.756 31.2664 82.7086 30.3585 82.6147L30.2556 83.6093ZM33.3791 83.756C34.5628 83.756 35.6133 83.5811 36.5183 83.2156L36.1438 82.2884C35.3848 82.5949 34.4673 82.756 33.3791 82.756V83.756ZM35.8921 82.9914C36.0356 83.2545 36.1191 83.5921 36.1191 84.024H37.1191C37.1191 83.4639 37.0105 82.9535 36.77 82.5126L35.8921 82.9914ZM36.1191 84.024C36.1191 84.3549 35.9919 84.6753 35.6824 84.9977L36.4038 85.6903C36.8622 85.2127 37.1191 84.6531 37.1191 84.024H36.1191ZM35.6821 84.998C35.4043 85.2879 35.0929 85.42 34.7231 85.42V86.42C35.3772 86.42 35.9459 86.1681 36.4041 85.69L35.6821 84.998ZM34.7231 85.42C34.2615 85.42 33.5644 85.332 32.6131 85.1417L32.417 86.1223C33.3857 86.316 34.1606 86.42 34.7231 86.42V85.42ZM32.6209 85.1433C31.6517 84.9333 30.8737 84.82 30.3071 84.82V85.82C30.7644 85.82 31.4584 85.9147 32.4092 86.1207L32.6209 85.1433ZM42.9663 76.152L42.8082 75.6777L42.5454 75.7653L42.4803 76.0345L42.9663 76.152ZM46.7343 76.704L46.3407 77.0125L46.3449 77.0177L46.7343 76.704ZM47.8143 79.176L47.328 79.2921L47.3292 79.2973L47.8143 79.176ZM48.2943 81.288L47.806 81.3957L47.8076 81.4025L48.2943 81.288ZM48.9183 83.928L49.4049 83.8129L49.4047 83.8122L48.9183 83.928ZM50.2623 88.8L49.7899 88.964L49.792 88.9698L50.2623 88.8ZM52.2303 91.56L52.6946 91.7457L52.8352 91.3941L52.5348 91.1634L52.2303 91.56ZM51.2703 92.712L50.9999 92.2914L50.993 92.296L51.2703 92.712ZM47.2863 90.504L47.764 90.3563L47.7634 90.3543L47.2863 90.504ZM46.5903 88.104L47.0736 87.9758L46.9359 87.4569L46.4282 87.631L46.5903 88.104ZM41.4783 88.128L41.5509 87.6333L41.1056 87.568L40.994 88.0039L41.4783 88.128ZM40.7583 92.952L40.8343 93.4462L41.3347 93.3692L41.2515 92.8698L40.7583 92.952ZM38.3823 92.544L38.0542 92.9213L38.0629 92.9289L38.072 92.936L38.3823 92.544ZM40.1343 84.168L39.6693 83.9843L40.1343 84.168ZM42.0303 86.112L41.5513 85.9686L41.3818 86.5348L41.9683 86.6081L42.0303 86.112ZM46.1103 86.016L46.2043 86.5071L46.7088 86.4105L46.5987 85.9088L46.1103 86.016ZM44.6463 78.48L45.1375 78.3864L44.8095 76.6648L44.1797 78.3003L44.6463 78.48ZM43.1244 76.6263C43.76 76.4145 44.3135 76.316 44.7903 76.316V75.316C44.1791 75.316 43.5166 75.4415 42.8082 75.6777L43.1244 76.6263ZM44.7903 76.316C45.4873 76.316 45.9825 76.5553 46.3408 77.0124L47.1278 76.3956C46.5581 75.6687 45.7573 75.316 44.7903 75.316V76.316ZM46.3449 77.0177C46.7452 77.5146 47.0815 78.26 47.328 79.2921L48.3006 79.0599C48.0351 77.948 47.6514 77.0454 47.1237 76.3903L46.3449 77.0177ZM47.3292 79.2973C47.4072 79.6092 47.5657 80.306 47.8061 81.3957L48.7826 81.1803C48.543 80.094 48.3814 79.3828 48.2994 79.0547L47.3292 79.2973ZM47.8076 81.4025C48.0637 82.4907 48.2718 83.3712 48.4319 84.0438L49.4047 83.8122C49.2449 83.1408 49.037 82.2613 48.781 81.1735L47.8076 81.4025ZM48.4318 84.0431C48.9292 86.1452 49.3817 87.7883 49.79 88.964L50.7346 88.636C50.3429 87.5077 49.8994 85.9028 49.4049 83.8129L48.4318 84.0431ZM49.792 88.9698C50.2376 90.2038 50.9476 91.2055 51.9258 91.9566L52.5348 91.1634C51.721 90.5385 51.119 89.7002 50.7326 88.6302L49.792 88.9698ZM51.7661 91.3743C51.6139 91.7547 51.3633 92.0578 50.9999 92.2914L51.5407 93.1326C52.0733 92.7902 52.4627 92.3253 52.6946 91.7457L51.7661 91.3743ZM50.993 92.296C50.6419 92.53 50.2661 92.644 49.8543 92.644V93.644C50.4665 93.644 51.0348 93.47 51.5477 93.128L50.993 92.296ZM49.8543 92.644C49.4128 92.644 49.034 92.4841 48.6947 92.1354C48.3425 91.7733 48.0234 91.1955 47.764 90.3563L46.8086 90.6517C47.0932 91.5725 47.4741 92.3147 47.9779 92.8326C48.4947 93.3639 49.1278 93.644 49.8543 93.644V92.644ZM47.7634 90.3543C47.5095 89.5451 47.2796 88.7522 47.0736 87.9758L46.107 88.2322C46.317 89.0238 46.5511 89.8309 46.8092 90.6537L47.7634 90.3543ZM46.4282 87.631C45.9368 87.7995 45.2997 87.892 44.5023 87.892V88.892C45.3689 88.892 46.1238 88.7925 46.7525 88.577L46.4282 87.631ZM44.5023 87.892C43.7192 87.892 42.7372 87.8073 41.5509 87.6333L41.4058 88.6227C42.6194 88.8007 43.6534 88.892 44.5023 88.892V87.892ZM40.994 88.0039C40.496 89.9474 40.2343 91.4541 40.2343 92.496H41.2343C41.2343 91.5859 41.4686 90.1806 41.9627 88.2521L40.994 88.0039ZM40.2343 92.496C40.2343 92.7078 40.2419 92.8948 40.2651 93.0342L41.2515 92.8698C41.2427 92.8172 41.2343 92.7002 41.2343 92.496H40.2343ZM40.6823 92.4578C40.5157 92.4834 40.1977 92.5 39.7023 92.5V93.5C40.1989 93.5 40.5849 93.4846 40.8343 93.4462L40.6823 92.4578ZM39.7023 92.5C39.3174 92.5 38.9871 92.3851 38.6927 92.152L38.072 92.936C38.5455 93.3109 39.0952 93.5 39.7023 93.5V92.5ZM38.7104 92.1667C38.4716 91.9591 38.3303 91.6601 38.3303 91.2H37.3303C37.3303 91.8919 37.557 92.4889 38.0542 92.9213L38.7104 92.1667ZM38.3303 91.2C38.3303 91.0627 38.3659 90.8143 38.46 90.4291C38.5518 90.0533 38.6916 89.5771 38.8815 88.9977C39.261 87.8394 39.8329 86.2919 40.5993 84.3517L39.6693 83.9843C38.8998 85.9321 38.3197 87.5006 37.9312 88.6863C37.737 89.2789 37.5888 89.7817 37.4886 90.1919C37.3907 90.5927 37.3303 90.9373 37.3303 91.2H38.3303ZM40.5993 84.3517C42.1339 80.4674 43.0909 77.7643 43.4523 76.2695L42.4803 76.0345C42.1377 77.4517 41.2067 80.0926 39.6693 83.9843L40.5993 84.3517ZM41.9683 86.6081C42.6292 86.6908 43.2979 86.732 43.9743 86.732V85.732C43.3387 85.732 42.7114 85.6932 42.0923 85.6159L41.9683 86.6081ZM43.9743 86.732C44.6819 86.732 45.4256 86.6562 46.2043 86.5071L46.0163 85.5249C45.2911 85.6638 44.6108 85.732 43.9743 85.732V86.732ZM46.5987 85.9088C46.4566 85.2616 45.9704 82.7591 45.1375 78.3864L44.1551 78.5736C44.9863 82.9369 45.476 85.4584 45.6219 86.1232L46.5987 85.9088ZM44.1797 78.3003C43.1834 80.8876 42.3072 83.4437 41.5513 85.9686L42.5093 86.2554C43.2575 83.7563 44.1253 81.2244 45.1129 78.6597L44.1797 78.3003ZM64.2119 76.2L63.9883 75.7528L63.6613 75.9163L63.718 76.2775L64.2119 76.2ZM67.2119 76.344L66.8583 76.6976L66.8663 76.7053L67.2119 76.344ZM67.5479 80.904L68.0461 80.9467L68.0461 80.9463L67.5479 80.904ZM67.7639 92.856L67.9395 93.3242L68.3133 93.184L68.2594 92.7884L67.7639 92.856ZM64.5719 92.832L64.8263 92.4015L64.8222 92.3991L64.5719 92.832ZM57.3959 81.6L57.8349 81.3606L57.0631 79.945L56.8985 81.549L57.3959 81.6ZM57.8279 92.712L58.0084 93.1783L58.3858 93.0322L58.3216 92.6327L57.8279 92.712ZM54.8039 92.448L54.4425 92.7937L54.4504 92.8016L54.8039 92.448ZM54.4919 87.912L53.9943 87.8632L53.9939 87.8681L54.4919 87.912ZM54.2759 76.296L54.0523 75.8488L53.7293 76.0103L53.7811 76.3678L54.2759 76.296ZM58.0679 76.992L58.5167 76.7714L58.5131 76.7643L58.0679 76.992ZM64.8599 89.232L64.4399 89.5033L65.3871 90.9697L65.3599 89.2242L64.8599 89.232ZM64.4355 76.6472C64.8797 76.4251 65.3393 76.316 65.8199 76.316V75.316C65.1805 75.316 64.5682 75.4629 63.9883 75.7528L64.4355 76.6472ZM65.8199 76.316C66.2859 76.316 66.615 76.4541 66.8584 76.6976L67.5655 75.9904C67.1049 75.5299 66.506 75.316 65.8199 75.316V76.316ZM66.8663 76.7053C67.1387 76.9658 67.2639 77.2605 67.2639 77.616H68.2639C68.2639 76.9795 68.0212 76.4262 67.5575 75.9827L66.8663 76.7053ZM67.2639 77.616C67.2639 78.0866 67.1942 79.1601 67.0497 80.8617L68.0461 80.9463C68.1897 79.2559 68.2639 78.1374 68.2639 77.616H67.2639ZM67.0498 80.8613C66.9053 82.5472 66.8319 83.8993 66.8319 84.912H67.8319C67.8319 83.9407 67.9026 82.6208 68.0461 80.9467L67.0498 80.8613ZM66.8319 84.912C66.8319 88.1087 66.9764 90.7812 67.2685 92.9236L68.2594 92.7884C67.9755 90.7068 67.8319 88.0833 67.8319 84.912H66.8319ZM67.5884 92.3878C67.1412 92.5555 66.626 92.644 66.0359 92.644V93.644C66.7259 93.644 67.3627 93.5405 67.9395 93.3242L67.5884 92.3878ZM66.0359 92.644C65.458 92.644 65.071 92.5461 64.8263 92.4015L64.3176 93.2625C64.7769 93.5339 65.3658 93.644 66.0359 93.644V92.644ZM64.8222 92.3991C64.6571 92.3037 64.3665 92.0287 63.9402 91.4876C63.5276 90.9639 63.0251 90.2402 62.4313 89.3108C61.2445 87.4532 59.7129 84.8049 57.8349 81.3606L56.957 81.8394C58.839 85.2911 60.3834 87.9628 61.5886 89.8492C62.1908 90.7918 62.7133 91.5461 63.1547 92.1064C63.5823 92.6493 63.9748 93.0643 64.3217 93.2649L64.8222 92.3991ZM56.8985 81.549C56.8314 82.2038 56.7999 83.6961 56.7999 85.992H57.7999C57.7999 83.6799 57.8325 82.2442 57.8933 81.651L56.8985 81.549ZM56.7999 85.992C56.7999 88.3057 56.9779 90.5723 57.3343 92.7913L58.3216 92.6327C57.9739 90.4677 57.7999 88.2543 57.7999 85.992H56.7999ZM57.6474 92.2457C57.2136 92.4136 56.7394 92.5 56.2199 92.5V93.5C56.8525 93.5 57.4503 93.3944 58.0084 93.1783L57.6474 92.2457ZM56.2199 92.5C55.761 92.5 55.4213 92.3582 55.1575 92.0944L54.4504 92.8016C54.9226 93.2738 55.5269 93.5 56.2199 93.5V92.5ZM55.1653 92.1024C54.9028 91.828 54.7759 91.512 54.7759 91.128H53.7759C53.7759 91.768 54.0011 92.332 54.4426 92.7936L55.1653 92.1024ZM54.7759 91.128C54.7759 90.642 54.8456 89.5927 54.99 87.9559L53.9939 87.8681C53.8503 89.4953 53.7759 90.59 53.7759 91.128H54.7759ZM54.9896 87.9608C55.1499 86.3249 55.2319 85.0732 55.2319 84.216H54.2319C54.2319 85.0228 54.1539 86.2351 53.9943 87.8632L54.9896 87.9608ZM55.2319 84.216C55.2319 81.0187 55.0795 78.3526 54.7708 76.2242L53.7811 76.3678C54.0804 78.4314 54.2319 81.0453 54.2319 84.216H55.2319ZM54.4995 76.7432C54.8448 76.5706 55.4089 76.46 56.2439 76.46V75.46C55.351 75.46 54.6031 75.5734 54.0523 75.8488L54.4995 76.7432ZM56.2439 76.46C56.6099 76.46 56.8887 76.5326 57.1017 76.6532C57.3116 76.7719 57.4865 76.9532 57.6228 77.2197L58.5131 76.7643C58.2974 76.3428 57.9923 76.0081 57.5942 75.7828C57.1992 75.5594 56.742 75.46 56.2439 75.46V76.46ZM57.6192 77.2126C59.9931 82.0405 62.2665 86.1385 64.4399 89.5033L65.2799 88.9607C63.1334 85.6375 60.8788 81.5755 58.5166 76.7714L57.6192 77.2126ZM65.3599 89.2242C65.3118 86.1481 65.2879 84.5308 65.2879 84.36H64.2879C64.2879 84.5412 64.3121 86.1719 64.36 89.2398L65.3599 89.2242ZM65.2879 84.36C65.2879 81.3472 65.0946 78.6008 64.7059 76.1225L63.718 76.2775C64.0972 78.6952 64.2879 81.3888 64.2879 84.36H65.2879ZM81.6843 76.896L81.3757 77.2894V77.2894L81.6843 76.896ZM79.9083 82.224L79.4169 82.1319L79.343 82.5257L79.7114 82.6836L79.9083 82.224ZM79.9803 81.408H80.4804L80.4803 81.4001L79.9803 81.408ZM79.2363 78.96L78.8363 79.26L78.84 79.2649L79.2363 78.96ZM74.5803 78.888L74.279 78.489L74.2147 78.5376L74.1689 78.6039L74.5803 78.888ZM74.1243 89.184L73.688 89.4283L73.692 89.4352L74.1243 89.184ZM80.0043 89.448L79.5553 89.2276L79.5501 89.2389L80.0043 89.448ZM80.6523 85.944V85.444H80.1523V85.944H80.6523ZM82.6923 86.4L82.4483 86.8366L82.4584 86.8419L82.6923 86.4ZM81.4443 91.752L81.7428 92.1531L81.7458 92.1509L81.4443 91.752ZM71.6523 91.056L71.2574 91.3627L71.259 91.3647L71.6523 91.056ZM72.0843 78.408L71.6952 78.094L71.6949 78.0944L72.0843 78.408ZM78.0363 76.172C79.3228 76.172 80.4286 76.5463 81.3757 77.2894L81.993 76.5026C80.86 75.6137 79.5339 75.172 78.0363 75.172V76.172ZM81.3757 77.2894C82.2977 78.0128 82.7443 78.9251 82.7443 80.064H83.7443C83.7443 78.6109 83.1509 77.4112 81.993 76.5026L81.3757 77.2894ZM82.7443 80.064C82.7443 80.6536 82.5824 81.0999 82.2887 81.4426L83.0479 82.0934C83.5222 81.5401 83.7443 80.8504 83.7443 80.064H82.7443ZM82.2887 81.4426C81.9939 81.7866 81.6576 81.94 81.2523 81.94V82.94C81.967 82.94 82.5748 82.6454 83.0479 82.0934L82.2887 81.4426ZM81.2523 81.94C80.7276 81.94 80.3549 81.8714 80.1053 81.7644L79.7114 82.6836C80.1337 82.8646 80.657 82.94 81.2523 82.94V81.94ZM80.3997 82.3161C80.454 82.0268 80.4803 81.7237 80.4803 81.408H79.4803C79.4803 81.6683 79.4586 81.9092 79.4169 82.1319L80.3997 82.3161ZM80.4803 81.4001C80.463 80.3149 80.1946 79.3857 79.6326 78.6551L78.84 79.2649C79.2381 79.7823 79.4656 80.4851 79.4804 81.4159L80.4803 81.4001ZM79.6363 78.66C79.0459 77.8728 78.1811 77.5 77.1243 77.5V78.5C77.9235 78.5 78.4667 78.7672 78.8363 79.26L79.6363 78.66ZM77.1243 77.5C76.095 77.5 75.1427 77.8368 74.279 78.489L74.8816 79.287C75.586 78.7552 76.3297 78.5 77.1243 78.5V77.5ZM74.1689 78.6039C73.659 79.3424 73.279 80.2857 73.0136 81.4135L73.987 81.6425C74.2337 80.5943 74.5737 79.7776 74.9918 79.1721L74.1689 78.6039ZM73.0136 81.4135C72.7493 82.5368 72.6163 83.6473 72.6163 84.744H73.6163C73.6163 83.7287 73.7393 82.6952 73.987 81.6425L73.0136 81.4135ZM72.6163 84.744C72.6163 86.5661 72.9641 88.1356 73.6881 89.4283L74.5606 88.9397C73.9405 87.8324 73.6163 86.4419 73.6163 84.744H72.6163ZM73.692 89.4352C74.475 90.7827 75.7094 91.46 77.3163 91.46V90.46C76.0432 90.46 75.1496 89.9533 74.5566 88.9328L73.692 89.4352ZM77.3163 91.46C78.0417 91.46 78.6879 91.3224 79.2294 91.0178C79.7767 90.71 80.1861 90.2488 80.4585 89.6571L79.5501 89.2389C79.3585 89.6552 79.0879 89.95 78.7392 90.1462C78.3848 90.3456 77.9189 90.46 77.3163 90.46V91.46ZM80.4531 89.6683C80.9311 88.6947 81.1523 87.4424 81.1523 85.944H80.1523C80.1523 87.3576 79.9415 88.4413 79.5555 89.2277L80.4531 89.6683ZM80.6523 86.444C81.4086 86.444 81.9985 86.5851 82.4484 86.8365L82.9362 85.9635C82.2981 85.6069 81.5281 85.444 80.6523 85.444V86.444ZM82.4584 86.8419C82.6562 86.9466 82.7856 87.0749 82.8693 87.2225C82.9543 87.3726 83.0083 87.5717 83.0083 87.84H84.0083C84.0083 87.4363 83.9263 87.0594 83.7393 86.7295C83.551 86.3971 83.2725 86.1414 82.9263 85.9581L82.4584 86.8419ZM83.0083 87.84C83.0083 89.2341 82.4082 90.3967 81.1428 91.3531L81.7458 92.1509C83.2324 91.0273 84.0083 89.5819 84.0083 87.84H83.0083ZM81.1458 91.3509C79.8568 92.3102 78.4096 92.788 76.7883 92.788V93.788C78.623 93.788 80.2799 93.2418 81.7428 92.1531L81.1458 91.3509ZM76.7883 92.788C74.6528 92.788 73.1002 92.0907 72.0456 90.7473L71.259 91.3647C72.5405 92.9973 74.4118 93.788 76.7883 93.788V92.788ZM72.0472 90.7493C70.9675 89.359 70.4003 87.447 70.4003 84.96H69.4003C69.4003 87.593 70.0012 89.745 71.2574 91.3627L72.0472 90.7493ZM70.4003 84.96C70.4003 82.5016 71.0967 80.4315 72.4737 78.7216L71.6949 78.0944C70.1599 80.0005 69.4003 82.2984 69.4003 84.96H70.4003ZM72.4734 78.722C73.8436 77.0241 75.6802 76.172 78.0363 76.172V75.172C75.4004 75.172 73.269 76.1439 71.6952 78.094L72.4734 78.722ZM84.5956 77.208L84.1416 76.9985L83.9627 77.3862L84.3176 77.6236L84.5956 77.208ZM92.1076 84.168L91.63 84.316L91.941 85.3193L92.5237 84.4453L92.1076 84.168ZM94.6516 79.632L94.1981 79.4216L94.1971 79.4237L94.6516 79.632ZM95.7316 75.816V75.316H95.2316V75.816H95.7316ZM97.1236 79.944L96.6993 79.6795V79.6795L97.1236 79.944ZM94.6276 83.76L94.2147 83.478L94.214 83.4791L94.6276 83.76ZM93.0676 86.616L92.5841 86.4888L92.5726 86.5325L92.5691 86.5777L93.0676 86.616ZM93.3316 92.712L93.5072 93.1802L93.8818 93.0397L93.8269 92.6433L93.3316 92.712ZM90.1876 92.448L89.8563 92.8226L89.8634 92.8286L90.1876 92.448ZM89.8516 86.688L90.3499 86.729L90.3568 86.6451L90.3359 86.5637L89.8516 86.688ZM85.0496 77.4175C85.2044 77.0822 85.4118 76.8527 85.666 76.7025C85.9238 76.5501 86.2628 76.46 86.7076 76.46V75.46C86.1285 75.46 85.6035 75.5779 85.1573 75.8415C84.7075 76.1073 84.3709 76.5018 84.1416 76.9985L85.0496 77.4175ZM86.7076 76.46C87.3985 76.46 88.1938 76.9582 89.0679 78.2868C89.9298 79.5968 90.7872 81.5967 91.63 84.316L92.5852 84.02C91.732 81.2673 90.8415 79.1632 89.9033 77.7372C88.9774 76.3298 87.9208 75.46 86.7076 75.46V76.46ZM92.5237 84.4453C93.5294 82.9367 94.3905 81.4017 95.1062 79.8403L94.1971 79.4237C93.5047 80.9343 92.6698 82.4233 91.6916 83.8906L92.5237 84.4453ZM95.1052 79.8424C95.8367 78.2656 96.2316 76.9154 96.2316 75.816H95.2316C95.2316 76.7006 94.9065 77.8944 94.1981 79.4216L95.1052 79.8424ZM95.7316 76.316C96.5519 76.316 97.09 76.4271 97.4061 76.5941C97.5567 76.6737 97.6432 76.7587 97.6938 76.8388C97.7431 76.9171 97.7756 77.018 97.7756 77.16H98.7756C98.7756 76.854 98.7021 76.5629 98.5395 76.3052C98.378 76.0493 98.1465 75.8543 97.8732 75.7099C97.3413 75.4289 96.6073 75.316 95.7316 75.316V76.316ZM97.7756 77.16C97.7756 77.3786 97.706 77.6969 97.5256 78.1328C97.3476 78.5629 97.0746 79.0775 96.6993 79.6795L97.5479 80.2085C97.9407 79.5785 98.2436 79.0131 98.4496 78.5152C98.6533 78.0231 98.7756 77.5654 98.7756 77.16H97.7756ZM96.6993 79.6795C95.9353 80.9051 95.1072 82.1712 94.2147 83.478L95.0405 84.042C95.9401 82.7248 96.7759 81.4469 97.5479 80.2085L96.6993 79.6795ZM94.214 83.4791C93.3358 84.7725 92.7684 85.7884 92.5841 86.4888L93.5512 86.7432C93.6869 86.2276 94.1595 85.3395 95.0413 84.0409L94.214 83.4791ZM92.5691 86.5777C92.5198 87.2187 92.4956 88.0004 92.4956 88.92H93.4956C93.4956 88.0156 93.5195 87.2613 93.5662 86.6543L92.5691 86.5777ZM92.4956 88.92C92.4956 89.8662 92.6113 91.1566 92.8364 92.7807L93.8269 92.6433C93.604 91.0354 93.4956 89.7978 93.4956 88.92H92.4956ZM93.1561 92.2438C92.7032 92.4137 92.2189 92.5 91.6996 92.5V93.5C92.3323 93.5 92.9361 93.3943 93.5072 93.1802L93.1561 92.2438ZM91.6996 92.5C91.2405 92.5 90.8519 92.3571 90.5119 92.0674L89.8634 92.8286C90.3873 93.2749 91.0067 93.5 91.6996 93.5V92.5ZM90.5189 92.0735C90.2112 91.8013 90.0636 91.4741 90.0636 91.056H89.0636C89.0636 91.7579 89.332 92.3587 89.8563 92.8225L90.5189 92.0735ZM90.0636 91.056C90.0636 90.5052 90.1573 89.0728 90.3499 86.729L89.3533 86.647C89.162 88.9752 89.0636 90.4548 89.0636 91.056H90.0636ZM90.3359 86.5637C89.0956 81.7313 87.3036 78.4181 84.8736 76.7924L84.3176 77.6236C86.4316 79.0379 88.1436 82.0447 89.3673 86.8123L90.3359 86.5637Z" fill="#EF8B8B" fill-opacity="0.06" mask="url(#path-9-outside-2_2765_287137)"/>
</g>
</g>
<defs>
<filter id="filter0_d_2765_287137" x="20.5117" y="19.9961" width="83.9746" height="93.0078" filterUnits="userSpaceOnUse" color-interpolation-filters="sRGB">
<feFlood flood-opacity="0" result="BackgroundImageFix"/>
<feColorMatrix in="SourceAlpha" type="matrix" values="0 0 0 0 0 0 0 0 0 0 0 0 0 0 0 0 0 0 127 0" result="hardAlpha"/>
<feOffset dy="4"/>
<feGaussianBlur stdDeviation="2"/>
<feComposite in2="hardAlpha" operator="out"/>
<feColorMatrix type="matrix" values="0 0 0 0 0 0 0 0 0 0 0 0 0 0 0 0 0 0 0.25 0"/>
<feBlend mode="normal" in2="BackgroundImageFix" result="effect1_dropShadow_2765_287137"/>
<feBlend mode="normal" in="SourceGraphic" in2="effect1_dropShadow_2765_287137" result="shape"/>
</filter>
<filter id="filter1_d_2765_287137" x="13.5273" y="53.2266" width="97.4219" height="25.0391" filterUnits="userSpaceOnUse" color-interpolation-filters="sRGB">
<feFlood flood-opacity="0" result="BackgroundImageFix"/>
<feColorMatrix in="SourceAlpha" type="matrix" values="0 0 0 0 0 0 0 0 0 0 0 0 0 0 0 0 0 0 127 0" result="hardAlpha"/>
<feOffset dy="3"/>
<feGaussianBlur stdDeviation="1.5"/>
<feComposite in2="hardAlpha" operator="out"/>
<feColorMatrix type="matrix" values="0 0 0 0 0 0 0 0 0 0 0 0 0 0 0 0 0 0 0.25 0"/>
<feBlend mode="normal" in2="BackgroundImageFix" result="effect1_dropShadow_2765_287137"/>
<feBlend mode="normal" in="SourceGraphic" in2="effect1_dropShadow_2765_287137" result="shape"/>
</filter>
<filter id="filter2_d_2765_287137" x="24.0195" y="75.6719" width="77.2559" height="23.6172" filterUnits="userSpaceOnUse" color-interpolation-filters="sRGB">
<feFlood flood-opacity="0" result="BackgroundImageFix"/>
<feColorMatrix in="SourceAlpha" type="matrix" values="0 0 0 0 0 0 0 0 0 0 0 0 0 0 0 0 0 0 127 0" result="hardAlpha"/>
<feOffset dy="3"/>
<feGaussianBlur stdDeviation="1.5"/>
<feComposite in2="hardAlpha" operator="out"/>
<feColorMatrix type="matrix" values="0 0 0 0 0 0 0 0 0 0 0 0 0 0 0 0 0 0 0.25 0"/>
<feBlend mode="normal" in2="BackgroundImageFix" result="effect1_dropShadow_2765_287137"/>
<feBlend mode="normal" in="SourceGraphic" in2="effect1_dropShadow_2765_287137" result="shape"/>
</filter>
<linearGradient id="paint0_linear_2765_287137" x1="62.5" y1="0" x2="62.5" y2="125" gradientUnits="userSpaceOnUse">
<stop stop-color="#B69984"/>
<stop offset="0.15625" stop-color="#BCA08B"/>
<stop offset="0.411458" stop-color="#F5C7A6"/>
<stop offset="0.739583" stop-color="#B49884"/>
<stop offset="1" stop-color="#6B605E"/>
</linearGradient>
<linearGradient id="paint1_linear_2765_287137" x1="62.499" y1="20.9961" x2="62.499" y2="104.004" gradientUnits="userSpaceOnUse">
<stop stop-color="#AF9877"/>
<stop offset="0.171875" stop-color="#C7B084"/>
<stop offset="0.479167" stop-color="#FCE6B1"/>
<stop offset="0.770833" stop-color="#E6CEA4"/>
<stop offset="1" stop-color="#BB9F73"/>
</linearGradient>
<linearGradient id="paint2_linear_2765_287137" x1="62.499" y1="20.9961" x2="62.499" y2="104.004" gradientUnits="userSpaceOnUse">
<stop stop-color="#AF9877"/>
<stop offset="0.171875" stop-color="#C7B084"/>
<stop offset="0.479167" stop-color="#FCE6B1"/>
<stop offset="0.770833" stop-color="#E6CEA4"/>
<stop offset="1" stop-color="#BB9F73"/>
</linearGradient>
<linearGradient id="paint3_linear_2765_287137" x1="62.499" y1="20.9961" x2="62.499" y2="104.004" gradientUnits="userSpaceOnUse">
<stop offset="0.0208333" stop-color="#6C424C"/>
<stop offset="0.489583" stop-color="#C27993"/>
<stop offset="1" stop-color="#805763"/>
</linearGradient>
<linearGradient id="paint4_linear_2765_287137" x1="62.5" y1="0" x2="62.5" y2="125" gradientUnits="userSpaceOnUse">
<stop stop-color="#AF9877"/>
<stop offset="0.171875" stop-color="#C7B084"/>
<stop offset="0.479167" stop-color="#FCE6B1"/>
<stop offset="0.770833" stop-color="#E6CEA4"/>
<stop offset="1" stop-color="#BB9F73"/>
</linearGradient>
<linearGradient id="paint5_linear_2765_287137" x1="128.125" y1="-1.3907e-06" x2="-7.29167" y2="133.681" gradientUnits="userSpaceOnUse">
<stop stop-color="white"/>
<stop offset="0.38894" stop-color="white" stop-opacity="0"/>
</linearGradient>
<clipPath id="clip0_2765_287137">
<rect width="125" height="125" rx="28" fill="white"/>
</clipPath>
</defs>
</svg>
